<svg width="36" height="33" viewBox="0 0 36 33" fill="none" xmlns="http://www.w3.org/2000/svg">
<path d="M18.4351 5C18.4351 5 10.325 15.3865 10.325 19.518C10.325 23.6495 13.9996 27 18.5318 27C23.064 27.0002 26.7386 23.6501 26.7386 19.518C26.7386 15.3859 18.4345 5 18.4345 5H18.4351ZM15.5835 24.9014C15.4877 25.0181 15.3406 25.0801 15.1918 25.0801C15.0897 25.0801 14.9866 25.0513 14.899 24.9911C12.8331 23.5805 11.9353 20.9861 11.8982 20.8765C11.8186 20.6413 11.9631 20.3918 12.2208 20.319C12.4803 20.2452 12.7526 20.3779 12.8329 20.6127C12.8411 20.6371 13.6778 23.0426 15.4857 24.2773C15.7016 24.4248 15.7457 24.7041 15.5836 24.9013L15.5835 24.9014ZM17.4431 25.8732C17.4318 25.8732 17.4206 25.873 17.4092 25.8723C17.0323 25.8485 16.6595 25.7813 16.3012 25.672C16.0453 25.5938 15.907 25.341 15.9928 25.1077C16.0792 24.874 16.3563 24.7489 16.612 24.8265C16.8915 24.9117 17.1822 24.9644 17.4761 24.9829C17.7455 24.9999 17.9491 25.2126 17.9306 25.4582C17.9131 25.6932 17.6977 25.8732 17.4432 25.8732L17.4431 25.8732Z" fill="#9D4C6C"/>
</svg>
