<svg width="35" height="35" viewBox="0 0 35 35" fill="none" xmlns="http://www.w3.org/2000/svg">
<rect width="35" height="35" rx="8" fill="#EDF1FA"/>
<g clip-path="url(#clip0_822_1391)">
<path d="M21.05 25.5001C17.988 25.4961 15.0525 24.278 12.8873 22.1128C10.7221 19.9476 9.50397 17.0121 9.5 13.9501C9.5 13.0351 9.86348 12.1576 10.5105 11.5106C11.1575 10.8636 12.035 10.5001 12.95 10.5001C13.1438 10.4986 13.3372 10.5162 13.5275 10.5526C13.7115 10.5798 13.8923 10.625 14.0675 10.6876C14.1907 10.7308 14.3005 10.8054 14.386 10.9041C14.4715 11.0027 14.5297 11.122 14.555 11.2501L15.5825 15.7501C15.6102 15.8722 15.6069 15.9994 15.5728 16.1199C15.5387 16.2404 15.475 16.3505 15.3875 16.4401C15.29 16.5451 15.2825 16.5526 14.36 17.0326C15.0987 18.6532 16.3949 19.9547 18.0125 20.7001C18.5 19.7701 18.5075 19.7626 18.6125 19.6651C18.7021 19.5776 18.8122 19.5139 18.9327 19.4798C19.0532 19.4457 19.1804 19.4424 19.3025 19.4701L23.8025 20.4976C23.9265 20.5264 24.0411 20.5862 24.1356 20.6715C24.23 20.7568 24.3012 20.8647 24.3425 20.9851C24.4058 21.1631 24.4535 21.3463 24.485 21.5326C24.5152 21.7211 24.5302 21.9117 24.53 22.1026C24.5162 23.0137 24.1425 23.8823 23.4905 24.5188C22.8385 25.1554 21.9612 25.5081 21.05 25.5001Z" fill="#4B7FFB"/>
</g>
<defs>
<clipPath id="clip0_822_1391">
<rect width="18" height="18" fill="white" transform="translate(8 9)"/>
</clipPath>
</defs>
</svg>
