<svg width="38" height="29" viewBox="0 0 38 29" fill="none" xmlns="http://www.w3.org/2000/svg">
<path d="M17.8052 8.95764C18.1853 9.71119 18.4054 10.5666 18.4054 11.4627C18.4054 14.5176 15.9646 16.9819 12.9837 16.9819C10.0028 16.9819 7.5621 14.4973 7.5621 11.4627C7.5621 10.5666 7.78216 9.71119 8.16227 8.95764" stroke="#1B71D7" stroke-miterlimit="10" stroke-linecap="round" stroke-linejoin="round"/>
<path d="M17.8051 8.95755H8.1222L8.46231 3.11247L9.22254 2.88844C11.6233 2.19599 14.164 2.19598 16.5647 2.8477L17.465 3.09211L17.8051 8.95755Z" stroke="#1B71D7" stroke-miterlimit="10" stroke-linecap="round" stroke-linejoin="round"/>
<path d="M10.7429 5.7804H15.0442" stroke="#1B71D7" stroke-miterlimit="10" stroke-linecap="round" stroke-linejoin="round"/>
<path d="M12.9034 7.98003V3.60132" stroke="#1B71D7" stroke-miterlimit="10" stroke-linecap="round" stroke-linejoin="round"/>
<path d="M1 23.5194C1 20.7496 6.38162 18.5093 12.9836 18.5093C19.5856 18.5093 24.9472 20.7496 24.9472 23.5194V27.9999H18.3452H7.62199H1V23.5194Z" stroke="#1B71D7" stroke-miterlimit="10" stroke-linecap="round" stroke-linejoin="round"/>
<path d="M12.9636 28L8.78232 18.8148" stroke="#1B71D7" stroke-miterlimit="10" stroke-linecap="round" stroke-linejoin="round"/>
<path d="M12.9635 28L17.1448 18.8148" stroke="#1B71D7" stroke-miterlimit="10" stroke-linecap="round" stroke-linejoin="round"/>
<path d="M21.9863 4.68075C22.1063 3.86611 22.4464 3.09217 23.1066 2.39972C24.0269 1.46288 25.3473 0.729696 26.9078 1.09629C28.1682 1.38141 28.9884 2.29791 29.3285 2.76633C29.4085 2.86816 29.5486 2.86816 29.6286 2.76633C29.9687 2.29791 30.789 1.40178 32.0493 1.09629C33.6098 0.729696 34.9302 1.46288 35.8505 2.39972C38.3112 4.94549 36.4507 8.99837 33.7498 10.8721C32.6495 11.646 30.949 12.8476 30.1688 13.6419C29.9487 13.8659 29.7486 14.0695 29.6286 14.2325C29.5486 14.3139 29.4285 14.3139 29.3485 14.2325C29.2085 14.0695 29.0284 13.8659 28.8084 13.6419C28.0281 12.8679 26.3276 11.646 25.2273 10.8721C24.6871 10.5055 24.187 10.0574 23.7468 9.54827" stroke="#1B71D7" stroke-miterlimit="10" stroke-linecap="round" stroke-linejoin="round"/>
<path d="M22.3465 7.26708H24.5671L25.2273 6.18768L26.1276 8.652L27.1679 3.19385L28.3883 10.2406L29.8887 5.92294L30.809 8.67235L31.6093 7.26708H33.6699" stroke="#1B71D7" stroke-miterlimit="10" stroke-linecap="round" stroke-linejoin="round"/>
<path d="M33.6697 7.8374C33.979 7.8374 34.2297 7.58209 34.2297 7.26715C34.2297 6.95221 33.979 6.6969 33.6697 6.6969C33.3604 6.6969 33.1097 6.95221 33.1097 7.26715C33.1097 7.58209 33.3604 7.8374 33.6697 7.8374Z" fill="#1B71D7"/>
</svg>
