<svg width="38" height="33" viewBox="0 0 38 33" fill="none" xmlns="http://www.w3.org/2000/svg">
<path d="M1.11325 12.5409C0.69313 9.60069 1.41333 6.66046 3.75397 4.2765C5.93457 2.07133 9.09543 0.382671 12.8365 1.21706C15.8773 1.89252 17.8378 4.01823 18.6381 5.11088C18.8181 5.34928 19.1782 5.34928 19.3583 5.11088C20.1785 4.0381 22.119 1.91238 25.1599 1.21706C28.9009 0.382671 32.0617 2.07133 34.2423 4.2765C40.144 10.2364 35.6827 19.6729 29.221 24.0237C26.5602 25.8116 22.5191 28.6525 20.6386 30.4802C20.0985 30.9968 19.6583 31.4735 19.3382 31.851C19.1582 32.0497 18.8581 32.0497 18.6781 31.851C18.358 31.4735 17.9179 30.9968 17.3777 30.4802C15.4972 28.6724 11.4361 25.8315 8.79535 24.0237C6.53473 22.494 4.87428 20.9245 3.45389 18.5207" stroke="#1B71D7" stroke-miterlimit="10" stroke-linecap="round" stroke-linejoin="round"/>
<path d="M1.95332 15.6401H7.25478L8.83521 13.0972L10.9758 18.8386L13.4965 6.10422L16.3973 22.5933L20.0183 12.5012L22.1789 18.8783L24.0994 15.6401H29.0408" stroke="#1B71D7" stroke-miterlimit="10" stroke-linecap="round" stroke-linejoin="round"/>
<path d="M29.0403 17.2095C29.9129 17.2095 30.6203 16.5069 30.6203 15.6401C30.6203 14.7733 29.9129 14.0706 29.0403 14.0706C28.1677 14.0706 27.4603 14.7733 27.4603 15.6401C27.4603 16.5069 28.1677 17.2095 29.0403 17.2095Z" fill="#1B71D7"/>
</svg>
