<svg width="38" height="38" viewBox="0 0 38 38" fill="none" xmlns="http://www.w3.org/2000/svg">
<path d="M26.9167 3.16666V6.33332H25.3334V28.5C25.3334 30.1797 24.6661 31.7906 23.4784 32.9783C22.2907 34.1661 20.6797 34.8333 19 34.8333C17.3203 34.8333 15.7094 34.1661 14.5217 32.9783C13.334 31.7906 12.6667 30.1797 12.6667 28.5V6.33332H11.0834V3.16666H26.9167ZM20.5834 23.75C20.1634 23.75 19.7607 23.9168 19.4638 24.2137C19.1669 24.5107 19 24.9134 19 25.3333C19 25.7532 19.1669 26.156 19.4638 26.4529C19.7607 26.7498 20.1634 26.9167 20.5834 26.9167C21.0033 26.9167 21.406 26.7498 21.703 26.4529C21.9999 26.156 22.1667 25.7532 22.1667 25.3333C22.1667 24.9134 21.9999 24.5107 21.703 24.2137C21.406 23.9168 21.0033 23.75 20.5834 23.75ZM17.4167 19C16.9968 19 16.5941 19.1668 16.2971 19.4637C16.0002 19.7607 15.8334 20.1634 15.8334 20.5833C15.8334 21.0032 16.0002 21.406 16.2971 21.7029C16.5941 21.9998 16.9968 22.1667 17.4167 22.1667C17.8366 22.1667 18.2394 21.9998 18.5363 21.7029C18.8332 21.406 19 21.0032 19 20.5833C19 20.1634 18.8332 19.7607 18.5363 19.4637C18.2394 19.1668 17.8366 19 17.4167 19ZM22.1667 6.33332H15.8334V12.6667H22.1667V6.33332Z" fill="#FE6B84"/>
</svg>
