<svg width="19" height="36" viewBox="0 0 19 36" fill="none" xmlns="http://www.w3.org/2000/svg">
<path d="M17.9389 7.82049L17.8869 5.51698L14.9034 5.58499L14.8368 2.61604L10.5079 2.71336L10.4592 0.559825L8.0639 0.613983L8.11304 2.81174L3.7069 2.91081L3.77976 5.81131L0.819888 5.88327L0.873455 8.22763L17.9389 7.82049ZM1.32689 27.935L1.37943 30.2586L4.37355 30.1909L4.43953 33.1089L8.79418 33.011L8.84462 35.1925L11.0944 35.1417L11.0427 32.8813L15.4841 32.7808L15.4188 29.893L18.4118 29.8254L18.36 27.5308L1.32689 27.935ZM9.35414 8.02468L9.79921 27.7339L9.35414 8.02468Z" fill="#F2AD1A"/>
<path d="M9.35414 8.02468L9.79921 27.7339M17.9389 7.82049L17.8869 5.51698L14.9034 5.58499L14.8368 2.61604L10.5079 2.71336L10.4592 0.559825L8.0639 0.613983L8.11304 2.81174L3.7069 2.91081L3.77976 5.81131L0.819888 5.88327L0.873455 8.22763L17.9389 7.82049ZM1.32689 27.935L1.37943 30.2586L4.37355 30.1909L4.43953 33.1089L8.79418 33.011L8.84462 35.1925L11.0944 35.1417L11.0427 32.8812L15.4841 32.7808L15.4188 29.893L18.4118 29.8254L18.36 27.5308L1.32689 27.935Z" stroke="#F2AD1A" stroke-linecap="round" stroke-linejoin="round"/>
</svg>
