<svg width="26" height="26" viewBox="0 0 26 26" fill="none" xmlns="http://www.w3.org/2000/svg">
<g clip-path="url(#clip0_712_217)">
<path d="M25.4427 10.4005H16.0679L19.8566 6.50124C16.0818 2.7679 9.97016 2.62963 6.19534 6.36296C2.42053 10.1101 2.42053 16.1526 6.19534 19.8998C9.97016 23.6469 16.0818 23.6469 19.8566 19.8998C21.7371 18.0469 22.6773 15.8761 22.6773 13.1383H25.4427C25.4427 15.8761 24.226 19.4296 21.7924 21.8356C16.939 26.6474 9.05756 26.6474 4.20423 21.8356C-0.635276 17.0375 -0.676757 9.23901 4.17658 4.44099C9.02991 -0.357035 16.8146 -0.357035 21.6679 4.44099L25.4427 0.555557V10.4005ZM13.6897 7.46914V13.3457L18.5292 16.2217L17.5336 17.8948L11.6156 14.3827V7.46914H13.6897Z" fill="#9D4C6C"/>
</g>
<defs>
<clipPath id="clip0_712_217">
<rect width="24.8889" height="24.8889" fill="white" transform="translate(0.555542 0.555557)"/>
</clipPath>
</defs>
</svg>
