<svg width="48" height="48" viewBox="0 0 48 48" fill="none" xmlns="http://www.w3.org/2000/svg">
<path fill-rule="evenodd" clip-rule="evenodd" d="M34.063 22.783C34.036 21.184 34.007 19.47 34.001 17.633C33.0853 17.1749 32.2131 16.6347 31.395 16.019C29.852 14.846 28 12.948 28 10.448C28 8.221 29.684 6 32.188 6C33.35 6 34.29 6.464 35 7.157C35.709 6.464 36.65 6 37.813 6C40.316 6 42 8.223 42 10.448C42 12.871 40.139 14.771 38.611 15.951C37.7904 16.5804 36.9172 17.1382 36.001 17.618C36.007 19.362 36.035 21.027 36.061 22.603C36.121 26.058 36.171 29.087 35.962 31.588C35.644 35.376 34.705 38.416 31.897 40.061C29.136 41.678 25.056 42.286 21.677 41.875C19.981 41.669 18.362 41.195 17.137 40.377C16.246 39.782 15.539 38.981 15.207 37.977C13.13 37.882 11.064 37.503 9.43 36.825C7.665 36.093 6 34.825 6 32.84V13.122H6.003C6.00103 13.0814 6.00003 13.0407 6 13C6 10.239 10.477 8 16 8C21.523 8 26 10.239 26 13C26 13.04 25.999 13.082 25.997 13.122H26V19.071C27.6659 19.3119 29.1893 20.145 30.2911 21.4176C31.3928 22.6902 31.9991 24.3172 31.999 26.0004C31.9989 27.6837 31.3923 29.3106 30.2904 30.583C29.1885 31.8555 27.665 32.6883 25.999 32.929C25.953 34.944 24.342 36.219 22.565 36.943C21.095 37.541 19.285 37.871 17.435 37.969C17.635 38.237 17.905 38.485 18.249 38.714C19.119 39.296 20.399 39.705 21.919 39.89C24.97 40.261 28.586 39.682 30.887 38.335C32.798 37.215 33.662 35.08 33.969 31.421C34.17 29.019 34.121 26.159 34.063 22.783ZM23.997 32.929C23.953 33.707 23.324 34.474 21.811 35.09C20.286 35.711 18.179 36.023 16.011 35.999C15.7041 35.9954 15.3974 35.9851 15.091 35.968V17.98C15.391 17.993 15.694 18 16 18C19.271 18 22.175 17.215 24 16V19.07C22.3333 19.3097 20.8088 20.142 19.706 21.4145C18.6031 22.687 17.9959 24.3143 17.9955 25.9982C17.9951 27.6821 18.6017 29.3097 19.704 30.5826C20.8062 31.8556 22.3304 32.6886 23.997 32.929ZM24 13C24 13.215 23.774 13.948 22.177 14.747C20.699 15.485 18.518 16 16 16C13.482 16 11.3 15.485 9.823 14.747C8.226 13.948 8 13.215 8 13C8 12.785 8.226 12.052 9.823 11.253C11.301 10.515 13.482 10 16 10C18.518 10 20.7 10.515 22.177 11.253C23.774 12.052 24 12.785 24 13ZM23.5 26.5L25 21.5L26.5 26.5L25 28.5L23.5 26.5Z" fill="#259DF2"/>
</svg>
