<svg width="160" height="136" viewBox="0 0 160 136" fill="none" xmlns="http://www.w3.org/2000/svg">
<path d="M82.3005 43.4582C82.5129 43.1204 90.5647 47.174 99.6114 41.8991C108.658 36.6242 103.373 92.4186 103.373 92.4186L102.637 121.391L101.601 135.382H79.0621L74.4352 91.348C74.4352 91.348 79.1606 48.4525 82.3005 43.4582Z" fill="#454BCB"/>
<path d="M123.01 51.6954C119.326 48.5201 102.378 42.0707 102.378 42.0707L99.6113 47.0286C99.6113 47.0286 100.508 108.514 100.047 121.178V135.356H120.725L120.834 103.337C126.813 101.815 131.409 99.2889 133.938 96.5138C136.803 93.3644 137.492 91.5871 137.492 87.4036C137.492 83.22 126.689 54.8707 123.01 51.6954Z" fill="white"/>
<path d="M80.4404 97.5531L80.741 97.0646V42.6215C80.741 42.6215 63.7928 49.0501 60.1036 52.2462C56.4145 55.4423 45.715 84.779 45.5959 88.9625C45.1917 105.567 59.5855 126.521 59.5855 126.521C60.0585 126.291 60.5095 126.018 60.9327 125.705C60.6529 129.577 60.1762 135.356 60.1762 135.356H82.6373C82.6373 135.356 82.715 118.149 82.6373 117.364C82.627 116.896 81.4145 106.18 80.4404 97.5531Z" fill="white"/>
<path d="M116.492 82.7367L112.705 84.9921C112.662 85.0177 112.612 85.0313 112.562 85.0313C112.512 85.0313 112.463 85.0177 112.42 84.9921L108.42 82.7367C108.376 82.7113 108.34 82.675 108.314 82.6313C108.289 82.5875 108.275 82.5379 108.275 82.4872V74.0786C108.275 74.0028 108.305 73.93 108.358 73.8764C108.412 73.8228 108.484 73.7927 108.56 73.7927H116.332C116.369 73.7927 116.406 73.8001 116.44 73.8146C116.474 73.829 116.505 73.8501 116.531 73.8767C116.557 73.9034 116.578 73.9349 116.592 73.9696C116.605 74.0042 116.612 74.0413 116.611 74.0786V82.4924C116.613 82.5398 116.603 82.587 116.583 82.6297C116.562 82.6723 116.531 82.7091 116.492 82.7367V82.7367Z" fill="#D5E1ED"/>
<path d="M116.492 82.7367L112.705 84.9922C112.662 85.0178 112.612 85.0313 112.562 85.0313C112.512 85.0313 112.463 85.0178 112.42 84.9922L108.42 82.7367C108.376 82.7114 108.34 82.6751 108.314 82.6313C108.289 82.5876 108.275 82.5379 108.275 82.4873V75.778C108.275 75.7405 108.282 75.7033 108.296 75.6686C108.311 75.634 108.332 75.6024 108.358 75.5759C108.385 75.5494 108.416 75.5283 108.451 75.5139C108.485 75.4996 108.522 75.4922 108.56 75.4922H116.332C116.406 75.4935 116.477 75.5243 116.53 75.5777C116.582 75.6312 116.611 75.7031 116.611 75.778V82.4925C116.613 82.5399 116.603 82.5871 116.583 82.6297C116.562 82.6724 116.531 82.7091 116.492 82.7367V82.7367Z" fill="#B8DDFF"/>
<g opacity="0.5">
<path opacity="0.5" d="M100.047 121.734V37.3413C100.047 37.3413 100.756 38.6509 103.363 41.2962C106.617 44.6066 109.409 49.6113 109.409 49.6113L103.528 48.4679L111.166 56.175L105.42 90.0538L101.352 90.6619L103.943 98.8626L100.047 121.734Z" fill="#8FA7D7"/>
</g>
<g opacity="0.5">
<path opacity="0.5" d="M78.1554 41.2547C74.8963 44.5704 72.1088 49.5698 72.1088 49.5698L77.9896 48.4265L70.3523 56.1387L82.6684 120.03L81.4715 37.3051C81.4715 37.3051 80.7564 38.5991 78.1554 41.2547Z" fill="#8FA7D7"/>
</g>
<path d="M100.047 118.195L98.7668 36.6865C98.7668 36.6865 100.093 37.2582 102.694 39.9034C105.953 43.2139 108.13 48.9513 108.13 48.9513L102.249 47.8132L109.886 55.5202L104.415 90.3761L101.611 91.0257L103.684 95.1573L100.047 118.195Z" fill="white"/>
<path d="M82.6684 117.364V36.6865C82.6684 36.6865 81.3472 37.2582 78.7461 39.9034C75.4871 43.2139 73.3109 48.9513 73.3109 48.9513L79.1866 47.8132L71.5493 55.5202L82.6684 117.364Z" fill="white"/>
<path d="M91.8135 123.948C88.7601 123.955 85.7121 123.693 82.7047 123.164V122.691C82.7927 122.691 91.7254 124.473 100.047 122.665V123.143C97.3384 123.703 94.5786 123.973 91.8135 123.948Z" fill="#38A595"/>
<path d="M90.6735 50.9313C87.9179 50.945 85.1897 50.3821 82.6631 49.2787V48.7122C82.746 48.7486 90.9533 52.6567 98.9481 48.3536V48.9097C96.4046 50.2743 93.5577 50.9698 90.6735 50.9313V50.9313Z" fill="#38A595"/>
<path opacity="0.5" d="M53.0829 88.9885C53.0829 88.9885 59.2021 90.1682 62.4093 93.3591C62.3834 93.3591 54.4559 89.3835 53.0829 88.9885Z" fill="#8FA7D7"/>
<path d="M69.3057 116.34L70.5855 117.899C70.5855 117.899 67.9948 124.234 65.1399 127.576L62.8135 124.333C65.4593 122.102 67.6619 119.39 69.3057 116.34V116.34Z" fill="#FFCCA9"/>
<path opacity="0.5" d="M60.3264 88.9885C60.4767 89.2328 62.5285 91.1972 63.2124 93.1149L59.9844 89.4303L60.3264 88.9885Z" fill="#8FA7D7"/>
<path opacity="0.5" d="M66.8394 67.6862C66.8394 67.39 64.9637 92.1118 64.1658 95.3287L70.3834 114.318C70.3834 114.318 67.114 121.734 60.9948 125.705C60.9948 125.705 64.9119 125.118 71.0777 116.579C71.0777 116.579 67.9689 125.414 63.6373 129.145C63.6373 129.145 70.487 125.071 72.4974 112.697L66.0363 95.3287C66.0363 95.3287 67.1295 73.1794 66.8394 67.6862Z" fill="#8FA7D7"/>
<path opacity="0.5" d="M120.829 103.337L117.845 104.2L118.301 106.876L120.829 105.899V103.337Z" fill="#8FA7D7"/>
<path opacity="0.5" d="M120.109 84.7946L117.85 66.2L118.549 85.4026C110.948 88.2973 102.762 91.7533 102.762 91.7533C102.762 91.7533 107.109 90.6307 112.451 89.2016C117.793 87.7724 127.72 82.1805 127.72 82.1805C125.699 82.7626 122.99 83.7188 120.109 84.7946Z" fill="#8FA7D7"/>
<path opacity="0.1" d="M130.617 66.6521C130.617 66.6521 135.404 79.5717 135.456 87.9595C135.456 91.0777 133.699 93.6762 132.42 94.5856C119.984 103.67 104.601 103.992 104.601 103.992C104.601 103.992 104.471 106.071 104.181 106.466C104.181 106.466 131.373 104.657 136.57 92.8499C137.355 91.3649 137.673 89.6762 137.482 88.0063C136.979 82.4352 133.891 74.6034 130.617 66.6521Z" fill="#8FA7D7"/>
<path opacity="0.1" d="M54.8912 61.9073C55.0777 61.3876 47.1192 81.692 47.2124 88.9885C47.3575 104.314 58.6114 123.642 60.9637 125.705L59.6166 126.521C59.6166 126.521 44.6425 104.205 45.6269 88.9625C45.8187 85.9483 46.1813 84.6179 54.8912 61.9073Z" fill="#8FA7D7"/>
<path d="M104.254 106.341C105.135 97.3607 102.56 91.826 102.86 91.6908C105.767 90.376 112.995 87.5333 118.813 85.2622L119.062 72.0256L89.3264 70.8199L88.6528 114.874L118.28 113.663L118.461 104.049C113.78 105.119 109.034 105.885 104.254 106.341V106.341Z" fill="#AE376D"/>
<path d="M109.067 71.6204L109.083 71.0851L101.016 70.6226L101 71.293L109.067 71.6204Z" fill="#A1B5BF"/>
<path d="M102.073 72.1869C102.073 72.2092 102.068 72.2312 102.059 72.2517C102.051 72.2723 102.038 72.2908 102.022 72.3063C102.006 72.3218 101.987 72.334 101.967 72.342C101.946 72.3501 101.924 72.3539 101.902 72.3532C101.858 72.3532 101.815 72.3357 101.784 72.3045C101.753 72.2733 101.736 72.231 101.736 72.1869C101.735 72.1646 101.739 72.1424 101.747 72.1216C101.755 72.1009 101.767 72.0819 101.782 72.0659C101.798 72.0499 101.816 72.0372 101.837 72.0285C101.857 72.0198 101.879 72.0154 101.902 72.0154C101.924 72.0154 101.946 72.0198 101.967 72.0284C101.988 72.0371 102.007 72.0497 102.022 72.0656C102.038 72.0815 102.051 72.1004 102.06 72.1212C102.068 72.142 102.073 72.1644 102.073 72.1869Z" fill="#A1B5BF"/>
<path d="M108.435 72.4363C108.435 72.4569 108.429 72.477 108.418 72.4941C108.406 72.5112 108.39 72.5245 108.371 72.5324C108.352 72.5402 108.331 72.5423 108.311 72.5383C108.291 72.5343 108.273 72.5244 108.258 72.5098C108.244 72.4953 108.234 72.4768 108.23 72.4566C108.226 72.4364 108.228 72.4155 108.236 72.3966C108.244 72.3776 108.257 72.3613 108.274 72.3499C108.291 72.3385 108.311 72.3324 108.332 72.3324C108.359 72.3324 108.385 72.3433 108.405 72.3628C108.424 72.3823 108.435 72.4088 108.435 72.4363V72.4363Z" fill="#A1B5BF"/>
<path d="M103.72 26.0693C102.876 29.1303 101.378 31.4741 100.725 31.2974C100.725 31.2974 101.186 29.3433 101.793 26.2252C102.503 22.5873 102.601 20.0564 104.078 20.1967C104.751 20.2591 104.565 23.0031 103.72 26.0693Z" fill="#CB9672"/>
<g opacity="0.6">
<path opacity="0.6" d="M102.591 24.8012C101.819 27.883 101.383 31.4741 100.731 31.2974C100.731 31.2974 101.378 28.5118 101.99 25.3937C102.699 21.7558 102.627 20.5241 104.098 20.6644C104.093 20.6644 103.523 21.0542 102.591 24.8012Z" fill="#CB9672"/>
</g>
<path d="M77.8239 26.0692C78.6736 29.1302 80.0777 31.4948 80.7306 31.3129C80.2751 29.6005 79.9067 27.8659 79.627 26.116C79.0622 22.4781 78.943 20.0407 77.4663 20.181C76.7979 20.259 76.9793 23.003 77.8239 26.0692Z" fill="#CB9672"/>
<g opacity="0.6">
<path opacity="0.6" d="M78.5026 24.4685C79.2746 27.5503 80.057 31.5 80.7305 31.3181C80.7305 31.3181 80.0362 28.1428 79.43 25.0246C78.7202 21.3867 78.8342 20.55 77.3575 20.6852C77.3575 20.6852 77.5699 20.7215 78.5026 24.4685Z" fill="#D88D64"/>
</g>
<path d="M98.8808 43.8531C98.8808 43.8531 97.7616 46.8102 90.7201 46.8102C83.6787 46.8102 82.6683 44.0298 82.6683 44.0298V35.0547H98.7668L98.8808 43.8531Z" fill="#CB9672"/>
<g opacity="0.6">
<path opacity="0.6" d="M98.7771 37.3414C97.3264 40.3868 91.6372 42.7774 90.7201 42.7774C89.803 42.7774 84.9689 40.9429 82.6683 37.3882V32.7109H98.7668L98.7771 37.3414Z" fill="#B4734F"/>
</g>
<path d="M100.725 31.2973C98.0466 40.1321 90.7202 40.288 90.7202 40.288C90.7202 40.288 82.9792 40.288 80.6684 31.0843C79.1399 25.0246 75.487 15.7481 79.8704 8.86736C82.3627 4.98005 100.471 3.42097 102.606 8.86736C104.741 14.3137 102.3 26.1108 100.725 31.2973Z" fill="#CB9672"/>
<path d="M94.658 30.97C94.9534 31.2142 94.0363 34.4155 90.7254 34.4519C87.9119 34.4519 86.5026 31.578 86.7565 31.1467C87.0725 30.627 88.1917 30.9752 90.6114 30.9752C93.0311 30.9752 94.3316 30.6997 94.658 30.97Z" fill="white"/>
<path d="M90.6736 34.613C89.9044 34.5931 89.1537 34.3722 88.4958 33.972C87.8379 33.5719 87.2955 33.0064 86.9223 32.3315C86.6684 31.8898 86.4508 31.3285 86.6062 31.0635C86.8601 30.6269 87.4612 30.6633 88.5544 30.7309C89.0726 30.7672 89.772 30.8088 90.6011 30.8088C91.5855 30.8088 92.3783 30.762 93.0156 30.7257C94.0104 30.6685 94.513 30.6425 94.7513 30.84C94.9793 31.0323 94.8031 31.6091 94.7202 31.8794C94.4218 32.7001 93.8755 33.407 93.1576 33.9016C92.4397 34.3963 91.5859 34.654 90.715 34.639L90.6736 34.613ZM87.627 31.0219C87.2332 31.0219 86.9845 31.0687 86.886 31.2298C86.9109 31.6338 87.0592 32.0203 87.3109 32.3367C87.6701 32.9123 88.1644 33.3909 88.7506 33.7306C89.3368 34.0703 89.997 34.2609 90.6736 34.2856H90.7099C91.373 34.2983 92.0282 34.139 92.6119 33.823C93.1957 33.5071 93.6881 33.0452 94.0415 32.4822C94.3389 32.0752 94.5084 31.5885 94.5285 31.0843C94.0347 30.9878 93.5279 30.979 93.0311 31.0583C92.3938 31.0946 91.5959 31.1414 90.6011 31.1414C89.7617 31.1414 89.0829 31.0946 88.5285 31.0635C88.1865 31.0375 87.886 31.0219 87.6373 31.0219H87.627Z" fill="#D3976E"/>
<path d="M90.7305 28.2623C90.4172 28.0603 90.1825 27.7566 90.0655 27.4019C89.9486 27.0472 89.9565 26.663 90.088 26.3135C90.3 25.4526 90.4148 24.5705 90.43 23.6838H90.7616C90.7485 24.6045 90.6267 25.5203 90.3989 26.4122C90.2929 26.6922 90.2866 27.0003 90.381 27.2844C90.4754 27.5685 90.6648 27.8111 90.9171 27.9713L90.7305 28.2623Z" fill="#D88D64"/>
<path d="M103.446 94.1907L100.404 94.6532C96.5285 94.991 95.0984 91.9924 91.6735 92.4393C88.2487 92.8863 88.658 94.2427 88.658 94.2427C86.3886 94.305 86.9844 97.4596 86.9844 97.4596C85.9119 99.0602 87.031 100.91 87.031 100.91C86.2487 102.017 87.2901 103.696 87.2901 103.696C87.5803 105.52 89.7875 107.027 92.1606 107.277H92.3989H92.658H92.9274H93.3005H93.3471L93.6684 107.245C96.5285 106.856 104.425 103.654 104.425 103.654C104.549 97.4856 103.446 94.1907 103.446 94.1907Z" fill="#CB9672"/>
<path d="M88.6581 94.2634C88.6581 94.2634 90.6218 94.6532 91.684 94.726C93.065 94.8637 94.4381 95.0718 95.7979 95.3496C95.7979 95.3496 92.6062 95.0846 91.6529 95.0222C90.9482 94.9546 88.3575 94.2634 88.6581 94.2634Z" fill="#D88D64"/>
<path d="M89.2694 98.3327C89.2694 98.3327 87.829 97.7402 87.4041 97.1634C87.1628 96.8077 87.0083 96.4 86.9534 95.9733C86.89 96.4675 86.9004 96.9685 86.9845 97.4596L89.2694 98.3327Z" fill="#D88D64"/>
<path d="M89.3264 101.768C88.6555 101.477 88.0107 101.129 87.399 100.728C87.0065 100.386 86.707 99.9501 86.5285 99.4603C86.5993 99.9614 86.7759 100.442 87.0466 100.869L89.3264 101.768Z" fill="#D88D64"/>
<path d="M89.5855 104.559C88.9135 104.27 88.2685 103.922 87.658 103.519C87.2577 103.157 86.9487 102.704 86.7565 102.199C86.8319 102.732 87.0172 103.244 87.3005 103.701L89.5855 104.559Z" fill="#D88D64"/>
<path d="M88.9429 93.437C88.9429 93.437 88.5958 94.2425 89.2227 94.3517L89.3212 94.492L88.658 94.2425C88.6458 94.0957 88.6649 93.9479 88.7141 93.809C88.7632 93.6702 88.8412 93.5433 88.9429 93.437Z" fill="#D88D64"/>
<path d="M83.4197 72.3479C83.2435 63.035 81.8653 55.9672 77.4145 55.9672C72.9637 55.9672 71.5648 63.2689 71.4197 72.7948V73.3145C71.4197 75.1594 72.399 75.622 73.6528 75.8194C74.1096 75.884 74.5699 75.9204 75.0311 75.9286C75.0976 76.0897 75.2182 76.2224 75.372 76.3039C75.5258 76.3853 75.7031 76.4103 75.8733 76.3745C76.0435 76.3388 76.1958 76.2446 76.3041 76.1081C76.4124 75.9716 76.4698 75.8015 76.4663 75.6272V75.0087C76.4663 74.8089 76.3872 74.6172 76.2463 74.4759C76.1054 74.3346 75.9143 74.2552 75.715 74.2552C75.5354 74.2563 75.3624 74.3227 75.228 74.4422C75.0936 74.5617 75.007 74.7261 74.9844 74.9048C73.9844 74.858 72.7565 74.6397 72.3575 73.9018C71.9585 73.1638 72.1917 71.6463 72.228 70.6121C72.4922 62.6972 73.7824 56.7467 77.4093 56.7467C81.0363 56.7467 82.3471 62.6816 82.6166 70.5809C82.6477 71.5684 82.8186 73.0235 82.4508 73.7667C82.0829 74.5098 81.2176 74.7281 80.3212 74.8528C80.2664 74.6754 80.1482 74.5245 79.9893 74.4292C79.8304 74.3338 79.642 74.3007 79.4603 74.3361C79.2785 74.3715 79.1162 74.4731 79.0044 74.6212C78.8927 74.7693 78.8395 74.9536 78.8549 75.1386L78.9275 75.7519C78.9485 75.9256 79.0292 76.0865 79.1557 76.2071C79.2821 76.3276 79.4464 76.4002 79.6205 76.4125C79.7945 76.4248 79.9673 76.376 80.1094 76.2744C80.2514 76.1728 80.3538 76.0248 80.399 75.8558C81.8342 75.6531 83.4559 75.0191 83.4041 73.1326V72.3895C83.4135 72.3776 83.4189 72.363 83.4197 72.3479V72.3479Z" fill="#383F47"/>
<path d="M77.4767 56.3518H76.741V48.2861L77.4767 48.1406V56.3518Z" fill="#383F47"/>
<path d="M111.052 61.9073C110.668 51.4354 107.337 46.067 105.202 43.1047C103.176 40.288 102.705 39.9138 102.705 39.9138C103.052 40.0801 111.249 44.0714 111.896 61.8761L111.052 61.9073Z" fill="#383F47"/>
<path d="M111.523 62.1047C110.958 51.1912 108.363 46.4464 106.228 43.4841C104.202 40.6674 102.694 39.9034 102.694 39.9034C103.041 40.0645 111.249 44.4144 111.896 62.1983L111.523 62.1047Z" fill="#1A2026"/>
<path d="M115.124 65.1086C115.124 65.8209 114.914 66.5172 114.519 67.1094C114.125 67.7017 113.564 68.1633 112.908 68.4359C112.252 68.7085 111.53 68.7798 110.833 68.6408C110.137 68.5019 109.497 68.1589 108.995 67.6552C108.493 67.1515 108.151 66.5098 108.012 65.8112C107.873 65.1125 107.945 64.3884 108.216 63.7303C108.488 63.0722 108.948 62.5098 109.539 62.114C110.129 61.7183 110.823 61.5071 111.534 61.5071C112.486 61.5071 113.399 61.8865 114.073 62.5619C114.746 63.2373 115.124 64.1534 115.124 65.1086V65.1086Z" fill="#BCBCBC"/>
<path d="M111.534 68.7984C110.803 68.7984 110.089 68.5811 109.481 68.1739C108.874 67.7668 108.4 67.1881 108.121 66.511C107.841 65.8339 107.768 65.0889 107.91 64.3701C108.053 63.6513 108.405 62.9911 108.921 62.4729C109.438 61.9547 110.096 61.6017 110.813 61.4588C111.53 61.3158 112.272 61.3892 112.947 61.6696C113.622 61.9501 114.199 62.425 114.605 63.0344C115.011 63.6437 115.228 64.3601 115.228 65.093C115.227 66.0753 114.837 67.017 114.144 67.7116C113.452 68.4062 112.513 68.797 111.534 68.7984V68.7984ZM111.534 61.6006C110.845 61.6017 110.171 61.8074 109.599 62.1919C109.026 62.5764 108.58 63.1224 108.317 63.7609C108.053 64.3995 107.984 65.1021 108.119 65.7799C108.253 66.4577 108.584 67.0805 109.071 67.5695C109.558 68.0585 110.179 68.3919 110.854 68.5276C111.53 68.6633 112.23 68.5953 112.867 68.332C113.504 68.0687 114.049 67.622 114.434 67.0483C114.818 66.4746 115.024 65.7997 115.026 65.1086C115.026 64.6491 114.935 64.1941 114.76 63.7697C114.584 63.3453 114.327 62.9599 114.002 62.6354C113.678 62.311 113.293 62.054 112.869 61.8791C112.446 61.7042 111.992 61.6149 111.534 61.6162V61.6006Z" fill="#444444"/>
<g opacity="0.3">
<path opacity="0.3" d="M113.316 68.3671L112.435 66.4546L113.072 64.6929L115.057 63.8406C115.057 63.8406 116.212 66.3871 113.342 68.3671H113.316Z" fill="white"/>
</g>
<path d="M113.145 65.3737C113.129 65.6905 113.02 65.9956 112.833 66.2512C112.645 66.5068 112.387 66.7016 112.091 66.8115C111.794 66.9215 111.471 66.9416 111.163 66.8696C110.855 66.7975 110.575 66.6364 110.357 66.4061C110.14 66.1759 109.994 65.8867 109.939 65.5743C109.884 65.2619 109.921 64.9401 110.046 64.6487C110.171 64.3574 110.379 64.1092 110.643 63.9351C110.908 63.761 111.217 63.6685 111.534 63.6691C111.973 63.6813 112.389 63.8676 112.691 64.1872C112.993 64.5068 113.156 64.9334 113.145 65.3737V65.3737Z" fill="#635B53"/>
<g opacity="0.4">
<path opacity="0.4" d="M110.969 61.3824L111.166 63.5652L109.959 64.9995L107.808 65.1086C107.808 65.1086 107.596 62.2451 110.969 61.3824V61.3824Z" fill="white"/>
</g>
<path d="M112.953 65.1086C112.953 65.3933 112.869 65.6717 112.711 65.9084C112.554 66.1451 112.33 66.3296 112.067 66.4386C111.805 66.5475 111.517 66.5761 111.238 66.5205C110.96 66.465 110.704 66.3279 110.503 66.1265C110.303 65.9252 110.166 65.6687 110.11 65.3895C110.055 65.1102 110.084 64.8208 110.192 64.5577C110.301 64.2947 110.485 64.0699 110.721 63.9117C110.957 63.7535 111.234 63.6691 111.518 63.6691C111.707 63.6691 111.893 63.7063 112.067 63.7786C112.241 63.851 112.4 63.957 112.533 64.0907C112.666 64.2244 112.772 64.3831 112.844 64.5577C112.916 64.7324 112.953 64.9196 112.953 65.1086V65.1086Z" fill="#D3D3D3"/>
<path d="M111.534 66.6521C111.226 66.6521 110.926 66.5607 110.67 66.3894C110.415 66.218 110.215 65.9745 110.098 65.6897C109.98 65.4048 109.949 65.0913 110.009 64.7889C110.069 64.4864 110.217 64.2086 110.435 63.9906C110.652 63.7725 110.929 63.6241 111.23 63.5639C111.532 63.5037 111.845 63.5346 112.129 63.6526C112.413 63.7706 112.655 63.9705 112.826 64.2268C112.997 64.4832 113.088 64.7847 113.088 65.093C113.088 65.5065 112.924 65.9031 112.633 66.1955C112.341 66.4878 111.946 66.6521 111.534 66.6521ZM111.534 63.7782C111.27 63.7782 111.012 63.8567 110.793 64.0037C110.574 64.1506 110.404 64.3595 110.303 64.6039C110.202 64.8483 110.176 65.1171 110.228 65.3763C110.28 65.6355 110.407 65.8735 110.594 66.0601C110.781 66.2467 111.018 66.3734 111.277 66.4244C111.536 66.4753 111.804 66.4481 112.047 66.3463C112.29 66.2444 112.498 66.0724 112.643 65.8521C112.789 65.6317 112.866 65.373 112.865 65.1086C112.865 64.9335 112.831 64.76 112.764 64.5983C112.697 64.4365 112.599 64.2896 112.475 64.166C112.351 64.0424 112.204 63.9445 112.043 63.878C111.881 63.8114 111.708 63.7775 111.534 63.7782V63.7782Z" fill="#A8A6A0"/>
<path d="M112.093 65.28C112.093 65.3922 112.06 65.502 111.998 65.5952C111.935 65.6885 111.847 65.7611 111.743 65.8038C111.64 65.8465 111.526 65.8574 111.416 65.8352C111.307 65.8129 111.206 65.7584 111.127 65.6787C111.048 65.5989 110.995 65.4975 110.974 65.3873C110.953 65.2771 110.965 65.163 111.008 65.0596C111.052 64.9562 111.125 64.8681 111.218 64.8065C111.312 64.7448 111.422 64.7125 111.534 64.7135C111.608 64.7135 111.681 64.7282 111.749 64.7567C111.817 64.7853 111.879 64.8271 111.931 64.8798C111.983 64.9324 112.024 64.9949 112.052 65.0636C112.08 65.1323 112.094 65.2058 112.093 65.28Z" fill="#BABABA"/>
<path d="M111.534 65.675C111.846 65.675 112.098 65.4214 112.098 65.1086C112.098 64.7957 111.846 64.5421 111.534 64.5421C111.222 64.5421 110.969 64.7957 110.969 65.1086C110.969 65.4214 111.222 65.675 111.534 65.675Z" fill="white"/>
<path d="M75.5959 74.5619H75.4404C75.3117 74.5619 75.2073 74.6666 75.2073 74.7957V75.7832C75.2073 75.9123 75.3117 76.017 75.4404 76.017H75.5959C75.7246 76.017 75.829 75.9123 75.829 75.7832V74.7957C75.829 74.6666 75.7246 74.5619 75.5959 74.5619Z" fill="#AAA9A2"/>
<path d="M79.6806 74.5497L79.5259 74.5644C79.3977 74.5766 79.3036 74.6907 79.3157 74.8192L79.4086 75.8023C79.4207 75.9309 79.5345 76.0252 79.6627 76.013L79.8174 75.9983C79.9456 75.9862 80.0397 75.8721 80.0276 75.7435L79.9347 74.7604C79.9226 74.6319 79.8088 74.5375 79.6806 74.5497Z" fill="#AAA9A2"/>
<g opacity="0.4">
<path opacity="0.4" d="M111.166 63.877C110.934 63.946 110.727 64.0809 110.57 64.2653C110.412 64.4497 110.312 64.6758 110.28 64.9163L111.088 64.9787L111.301 64.7656L111.166 63.877Z" fill="white"/>
</g>
<g opacity="0.4">
<path opacity="0.4" d="M112.301 66.1635C112.495 66.0189 112.644 65.8204 112.727 65.5923C112.811 65.3643 112.827 65.1167 112.772 64.8799L111.995 65.1033L111.87 65.3788L112.301 66.1635Z" fill="white"/>
</g>
<path d="M79.0414 25.1441C79.0414 25.1441 77.487 18.9909 77.2176 15.8832C76.9482 12.7754 76.6166 8.60746 80.1088 7.1783C83.601 5.74915 82.5285 10.0938 82.5285 10.0938C82.5285 10.0938 79.7668 11.9595 79.2124 16.6211C78.9119 19.1624 79.0414 25.1441 79.0414 25.1441Z" fill="#2A445D"/>
<path d="M102.254 25.0558C102.254 25.0558 103.969 18.9962 104.249 15.8884C104.528 12.7807 104.85 8.61271 101.357 7.18355C97.8652 5.75439 98.9637 10.099 98.9637 10.099C98.9637 10.099 101.725 11.9647 102.28 16.6264C102.554 19.1625 102.254 25.0558 102.254 25.0558Z" fill="#2A445D"/>
<path d="M99.399 11.5957C99.399 11.5957 95.1503 12.2713 92.2953 10.9305C91.4612 10.5355 87.4093 12.2661 85.5596 11.9179C84.4574 11.7133 83.4169 11.2573 82.5185 10.585C81.6201 9.9128 80.8878 9.04236 80.3783 8.04099C80.1762 7.16271 79.342 5.91544 81.8964 3.97699C85.4611 1.29537 89.8601 1.94498 90.5959 1.16025C90.9387 0.734079 91.3873 0.405969 91.8966 0.208914C92.406 0.0118591 92.9581 -0.0471906 93.4974 0.0377074C97.3161 0.422281 97.5026 2.67256 99.6529 3.00516C102.446 3.4469 103.389 4.56424 103.57 6.92885C103.886 11.4086 99.399 11.5957 99.399 11.5957Z" fill="#2A445D"/>
<path d="M91.3005 0.562622C91.3005 0.562622 90.1036 1.42012 87.0984 4.93325C84.0932 8.44637 82.5284 8.22291 82.1917 8.28527C82.1917 8.28527 84.7823 8.7322 87.5284 5.11514C90.2745 1.49807 91.3005 0.562622 91.3005 0.562622Z" fill="#1F384C"/>
<path d="M96.0207 11.4762C96.0207 11.4762 101.036 12.0739 103.223 9.44421C103.223 9.44421 102.762 12.1934 96.1347 11.523L96.0207 11.4762Z" fill="#1F384C"/>
<path d="M87.7668 11.5542C81.8653 12.3805 80.1606 7.47457 80.1865 7.5785C80.544 8.71611 81.1955 9.7385 82.0746 10.5418C82.9537 11.345 84.0292 11.9005 85.1917 12.1518C85.6998 12.2906 86.2206 12.3777 86.7461 12.4117C87.0259 12.4117 87.1969 12.4117 87.1969 12.4117C92.8445 12.4636 97.4093 6.47156 97.4093 6.47156C93.5855 9.782 90.1813 11.076 87.7668 11.5542Z" fill="#1F384C"/>
<path d="M97.8549 18.9702C97.1533 18.4661 96.283 18.2572 95.43 18.3881C95.3395 18.4101 95.2448 18.4072 95.1559 18.3798C95.0669 18.3524 94.9869 18.3014 94.9244 18.2323C94.8618 18.1632 94.819 18.0784 94.8004 17.987C94.7818 17.8955 94.7881 17.8007 94.8186 17.7125V17.7125C94.84 17.6217 94.884 17.5378 94.9465 17.4687C95.009 17.3996 95.088 17.3476 95.1761 17.3176C95.7546 17.1069 96.3817 17.07 96.9807 17.2112C97.5798 17.3524 98.1248 17.6657 98.5491 18.1127C98.613 18.1811 98.6585 18.2647 98.6811 18.3557C98.7038 18.4466 98.703 18.5419 98.6787 18.6324V18.6688C98.6602 18.7546 98.6204 18.8344 98.5629 18.9007C98.5053 18.9669 98.432 19.0175 98.3497 19.0476C98.2674 19.0777 98.1789 19.0864 98.0923 19.0728C98.0058 19.0593 97.9241 19.024 97.8549 18.9702Z" fill="#2A445D"/>
<path d="M95.285 23.424C95.6341 23.424 95.9171 23.0634 95.9171 22.6185C95.9171 22.1736 95.6341 21.813 95.285 21.813C94.9358 21.813 94.6528 22.1736 94.6528 22.6185C94.6528 23.0634 94.9358 23.424 95.285 23.424Z" fill="#210601"/>
<path d="M86.3679 21.7454C86.1872 21.7893 86.0265 21.8928 85.9115 22.0394C85.7966 22.186 85.7341 22.367 85.7341 22.5535C85.7341 22.74 85.7966 22.921 85.9115 23.0676C86.0265 23.2141 86.1872 23.3177 86.3679 23.3616C86.5485 23.3177 86.7093 23.2141 86.8242 23.0676C86.9392 22.921 87.0016 22.74 87.0016 22.5535C87.0016 22.367 86.9392 22.186 86.8242 22.0394C86.7093 21.8928 86.5485 21.7893 86.3679 21.7454V21.7454Z" fill="#210601"/>
<path d="M97.8187 21.7974C97.6445 21.2131 97.276 20.7064 96.7745 20.3616C96.2729 20.0169 95.6687 19.8551 95.0626 19.9031C94.4565 19.9511 93.8851 20.2061 93.4438 20.6256C93.0024 21.045 92.7178 21.6035 92.6373 22.2079V22.2079C92.4128 21.9468 92.1372 21.7347 91.8275 21.5849C91.5178 21.435 91.1808 21.3507 90.8372 21.337C90.4937 21.3234 90.151 21.3807 89.8305 21.5055C89.51 21.6303 89.2185 21.8199 88.9741 22.0624C88.8668 21.477 88.5677 20.9442 88.1241 20.5488C87.6805 20.1533 87.118 19.9177 86.5257 19.8795C85.9334 19.8413 85.3454 20.0026 84.855 20.3378C84.3646 20.6731 83.9998 21.163 83.8187 21.7298C79.3782 20.1707 78.285 19.9421 77.9896 19.9992C77.9067 19.9992 77.829 20.15 77.8135 20.2227L78.0415 20.3163C78.0554 20.296 78.071 20.2768 78.0881 20.2591C78.4767 20.2123 81.2384 21.1114 83.7358 22.0001C83.6983 22.1813 83.6792 22.3659 83.6788 22.5509C83.6762 23.1416 83.8689 23.7166 84.2267 24.1857C84.5845 24.6549 85.0873 24.9919 85.6564 25.1439C86.2255 25.296 86.8288 25.2545 87.3719 25.0261C87.915 24.7976 88.3673 24.3951 88.658 23.8814C88.738 23.8688 88.8151 23.8424 88.886 23.8034C88.9642 23.7671 89.0346 23.716 89.0933 23.6527C89.2063 23.5244 89.2785 23.3651 89.3005 23.1954C89.3588 22.8867 89.3036 22.5673 89.1451 22.2963C89.3621 22.0727 89.6235 21.8972 89.9122 21.7811C90.201 21.6649 90.5108 21.6108 90.8218 21.622C91.1327 21.6333 91.4378 21.7097 91.7175 21.8464C91.9972 21.9832 92.2452 22.1771 92.4456 22.4158C92.313 22.677 92.2693 22.9745 92.3212 23.2629C92.3446 23.4308 92.4166 23.588 92.5285 23.7151C92.5891 23.7775 92.659 23.8301 92.7358 23.871C92.8076 23.9077 92.8844 23.934 92.9637 23.9489C93.2545 24.4626 93.7068 24.8652 94.2499 25.0936C94.793 25.3221 95.3963 25.3635 95.9654 25.2115C96.5345 25.0594 97.0372 24.7225 97.3951 24.2533C97.7529 23.7841 97.9456 23.2092 97.943 22.6185C97.9428 22.4334 97.9237 22.2488 97.886 22.0676C100.425 21.1634 103.181 20.2435 103.497 20.3215L103.782 20.2019C103.71 20.0148 103.591 19.7446 97.8187 21.7974ZM86.3679 24.9519C85.8944 24.953 85.4313 24.8131 85.0371 24.5502C84.6429 24.2872 84.3353 23.9129 84.1531 23.4746C83.971 23.0362 83.9226 22.5536 84.0139 22.0876C84.1053 21.6217 84.3323 21.1934 84.6664 20.8569C85.0004 20.5204 85.4265 20.2908 85.8906 20.1971C86.3548 20.1035 86.8362 20.15 87.274 20.3307C87.7118 20.5115 88.0863 20.8184 88.3502 21.2127C88.6141 21.607 88.7555 22.0709 88.7565 22.5457C88.7572 22.8611 88.6959 23.1734 88.5763 23.465C88.4566 23.7565 88.2808 24.0216 88.059 24.245C87.8372 24.4685 87.5737 24.6459 87.2836 24.7672C86.9934 24.8885 86.6822 24.9512 86.3679 24.9519V24.9519ZM89.0311 23.3305C89.0057 23.3906 88.9666 23.444 88.9171 23.4864C88.8966 23.5032 88.874 23.5172 88.8497 23.528C88.9606 23.2426 89.0219 22.9402 89.0311 22.6341C89.0599 22.6819 89.0792 22.7349 89.0881 22.79C89.1133 22.9721 89.0937 23.1577 89.0311 23.3305V23.3305ZM92.7358 23.554C92.6904 23.5078 92.6521 23.4553 92.6218 23.398C92.5628 23.2316 92.5433 23.0537 92.5648 22.8784C92.5783 22.8229 92.5974 22.7689 92.6218 22.7172C92.631 23.0251 92.6923 23.3291 92.8031 23.6163L92.7358 23.554ZM95.285 25.0143C94.8113 25.0143 94.3483 24.8733 93.9545 24.6093C93.5608 24.3452 93.2539 23.9699 93.0729 23.5309C92.8919 23.0919 92.8448 22.6089 92.9376 22.143C93.0304 21.6771 93.2589 21.2493 93.5942 20.9137C93.9295 20.5781 94.3565 20.3499 94.8212 20.2578C95.2858 20.1658 95.7673 20.2141 96.2046 20.3966C96.642 20.5791 97.0155 20.8877 97.2779 21.2832C97.5403 21.6787 97.6798 22.1434 97.6788 22.6185C97.6774 23.2544 97.4246 23.8637 96.9758 24.3129C96.527 24.762 95.919 25.0143 95.285 25.0143V25.0143Z" fill="#302420"/>
<path d="M83.7979 18.9078C84.4994 18.4032 85.3685 18.1908 86.2228 18.3154C86.311 18.333 86.4023 18.3274 86.4877 18.2989C86.5731 18.2704 86.6496 18.2202 86.7097 18.1531C86.7698 18.0859 86.8115 18.0043 86.8306 17.9161C86.8497 17.8279 86.8456 17.7362 86.8186 17.6501C86.7998 17.5596 86.7572 17.4758 86.6953 17.4072C86.6333 17.3387 86.5543 17.288 86.4663 17.2604C85.887 17.05 85.2592 17.0131 84.6594 17.1543C84.0595 17.2955 83.5136 17.6086 83.0881 18.0555C83.0277 18.1197 82.9846 18.1982 82.9629 18.2836C82.9411 18.3691 82.9414 18.4587 82.9637 18.544V18.5804C82.9776 18.6703 83.0148 18.7549 83.0715 18.8259C83.1282 18.8968 83.2025 18.9516 83.2869 18.9848C83.3714 19.0179 83.463 19.0282 83.5527 19.0147C83.6423 19.0012 83.7269 18.9644 83.7979 18.9078Z" fill="#2A445D"/>
<path d="M72.1036 72.691C72.1036 72.691 71.4042 58.4721 76.1917 56.6272C76.6575 56.4546 77.1552 56.386 77.6501 56.4264C78.1451 56.4668 78.6252 56.6152 79.057 56.8611C81.5959 58.1967 82.2228 63.0662 82.4197 65.2749C82.6684 68.1384 83.057 72.3012 82.5544 73.4653C82.5544 73.4653 82.7306 66.8548 81.6269 62.032C80.5233 57.2093 78.4404 56.6792 77.1088 56.7571C75.7772 56.8351 74.2332 58.3162 73.3679 61.2473C72.5026 64.1784 72.1036 72.691 72.1036 72.691Z" fill="#1A2026"/>
<path d="M71.4093 73.7407C71.5288 74.1129 71.7378 74.4499 72.0179 74.7218C72.2981 74.9937 72.6407 75.1923 73.0155 75.2998C73.3458 75.4011 73.696 75.418 74.0344 75.3491C74.3728 75.2801 74.6887 75.1274 74.9533 74.9048C74.9027 75.2511 74.9185 75.6039 75 75.9442C75 75.9442 71.5026 76.2924 71.4093 73.7407Z" fill="#1A2026"/>
<path d="M83.4197 72.7688C83.441 73.1436 83.3717 73.518 83.2176 73.8602C83.09 74.1422 82.9031 74.3932 82.6697 74.5959C82.4362 74.7987 82.1618 74.9483 81.8653 75.0347C80.7098 75.6479 80.3109 74.832 80.3109 74.832C80.3856 75.1607 80.4118 75.4986 80.3886 75.835C80.3886 75.835 83.6528 75.7362 83.4197 72.7688Z" fill="#1A2026"/>
<path d="M76.741 48.2861L77.4767 48.1406L77.4353 48.52L76.741 48.6551V48.2861Z" fill="#1A2026"/>
<g opacity="0.1">
<path opacity="0.1" d="M78.0725 56.8454L78.2176 48.0106L77.4767 48.1561L77.3368 56.887C73.3523 57.573 72.5544 64.6824 72.4145 73.7199V74.2396C72.4145 76.0845 73.3938 76.547 74.6425 76.7393C75.0989 76.8077 75.5593 76.8459 76.0207 76.8536C76.0897 77.0131 76.2116 77.1437 76.3656 77.2233C76.5196 77.3029 76.6963 77.3267 76.8658 77.2907C77.0353 77.2546 77.1872 77.1608 77.2957 77.0253C77.4042 76.8898 77.4626 76.7208 77.4611 76.547V75.9338C77.4611 75.7339 77.382 75.5422 77.2411 75.4009C77.1002 75.2596 76.9091 75.1802 76.7098 75.1802C76.5297 75.1811 76.3559 75.2474 76.2207 75.3668C76.0854 75.4862 75.9979 75.6507 75.9741 75.8298C74.9793 75.7831 73.7461 75.5648 73.3471 74.8268C72.9482 74.0889 73.1865 72.5713 73.2176 71.5372C73.4818 63.6222 74.342 57.6094 78 57.6094C81.658 57.6094 83.3627 63.6014 83.6269 71.48C83.6632 72.4726 83.8342 73.9277 83.4663 74.6657C83.0984 75.4037 82.228 75.6323 81.3368 75.7519C81.2884 75.5661 81.1713 75.4059 81.0092 75.3039C80.8471 75.2018 80.6522 75.1657 80.4645 75.2028C80.2767 75.2399 80.1101 75.3476 79.9988 75.5037C79.8874 75.6598 79.8397 75.8527 79.8653 76.0429L79.9378 76.6509C79.9589 76.8246 80.0396 76.9856 80.166 77.1061C80.2925 77.2267 80.4568 77.2993 80.6308 77.3116C80.8048 77.3239 80.9777 77.2751 81.1198 77.1735C81.2618 77.0719 81.3642 76.9239 81.4093 76.7549C82.8445 76.5574 84.4715 75.9234 84.4197 74.0369V73.2937C84.418 73.2817 84.418 73.2694 84.4197 73.2573C84.2383 64.0068 82.4404 56.913 78.0725 56.8454Z" fill="#0E3368"/>
<path opacity="0.1" d="M113.756 63.9497C113.016 46.4724 104.948 42.5019 104.58 42.3408C104.58 42.3408 105.052 42.7098 107.078 45.5265C109.192 48.4576 112.466 53.7377 112.912 63.9705C112.005 64.0785 111.174 64.5297 110.588 65.232C110.002 65.9343 109.706 66.8345 109.76 67.7486C109.814 68.6627 110.214 69.5216 110.878 70.1497C111.543 70.7778 112.421 71.1276 113.334 71.1276C114.247 71.1276 115.126 70.7778 115.79 70.1497C116.454 69.5216 116.854 68.6627 116.908 67.7486C116.962 66.8345 116.666 65.9343 116.08 65.232C115.494 64.5297 114.663 64.0785 113.756 63.9705V63.9497Z" fill="#0E3368"/>
<path opacity="0.1" d="M118.425 104.044L118.275 113.731L91.4145 114.76L91.373 118.164L120.114 116.943V103.623L118.425 104.044Z" fill="#0E3368"/>
</g>
</svg>
