<svg width="52" height="52" viewBox="0 0 52 52" fill="none" xmlns="http://www.w3.org/2000/svg">
<path d="M36.6305 3.9C34.069 1.3 30.7389 0 27.665 0C24.5911 0 21.0049 1.3 18.6995 3.9L3.84236 18.46C-1.28079 23.66 -1.28079 31.72 3.84236 36.92C8.96552 42.12 16.9064 42.12 22.0296 36.92L36.6305 22.1C41.4975 17.16 41.4975 8.84 36.6305 3.9ZM33.0443 18.46L25.8719 25.74L16.6502 16.64L5.37931 28.08C5.37931 26 5.89162 23.66 7.68473 22.1L22.2857 7.28C23.5665 5.98 25.6158 5.2 27.4089 5.2C29.202 5.2 31.2512 5.98 32.7882 7.28C35.8621 10.66 35.8621 15.34 33.0443 18.46ZM45.3399 13.26C45.3399 15.34 44.8276 17.16 44.3153 19.24C46.8768 22.36 46.8768 27.04 44.0591 29.9L36.8867 37.18L33.0443 33.28L25.8719 40.56C22.5419 43.94 17.931 45.76 13.5764 45.76C14.0887 46.54 14.601 47.32 15.3695 48.1C20.4926 53.3 28.4335 53.3 33.5566 48.1L48.1576 33.28C53.2808 28.08 53.2808 20.02 48.1576 14.82C46.8768 14.3 46.1084 13.78 45.3399 13.26Z" fill="#1648CE"/>
</svg>
