<svg width="132" height="132" viewBox="0 0 132 132" fill="none" xmlns="http://www.w3.org/2000/svg">
<circle cx="66" cy="65.9999" r="52.8764" fill="#E09F1F" fill-opacity="0.5" stroke="#E09F1F" stroke-width="4"/>
<circle cx="66" cy="66" r="64" stroke="#E09F1F" stroke-width="4"/>
<path fill-rule="evenodd" clip-rule="evenodd" d="M58.5 63C59.163 63 59.7989 63.2634 60.2678 63.7322C60.7366 64.2011 61 64.837 61 65.5C61 66.163 60.7366 66.7989 60.2678 67.2678C59.7989 67.7366 59.163 68 58.5 68C57.837 68 57.2011 67.7366 56.7322 67.2678C56.2634 66.7989 56 66.163 56 65.5C56 64.837 56.2634 64.2011 56.7322 63.7322C57.2011 63.2634 57.837 63 58.5 63ZM73.5 63C74.163 63 74.7989 63.2634 75.2678 63.7322C75.7366 64.2011 76 64.837 76 65.5C76 66.163 75.7366 66.7989 75.2678 67.2678C74.7989 67.7366 74.163 68 73.5 68C72.837 68 72.2011 67.7366 71.7322 67.2678C71.2634 66.7989 71 66.163 71 65.5C71 64.837 71.2634 64.2011 71.7322 63.7322C72.2011 63.2634 72.837 63 73.5 63ZM66.226 63C66.889 63 67.5249 63.2634 67.9938 63.7322C68.4626 64.2011 68.726 64.837 68.726 65.5C68.726 66.163 68.4626 66.7989 67.9938 67.2678C67.5249 67.7366 66.889 68 66.226 68C65.563 68 64.9271 67.7366 64.4582 67.2678C63.9894 66.7989 63.726 66.163 63.726 65.5C63.726 64.837 63.9894 64.2011 64.4582 63.7322C64.9271 63.2634 65.563 63 66.226 63Z" fill="#E09F1F"/>
</svg>
