<svg width="132" height="132" viewBox="0 0 132 132" fill="none" xmlns="http://www.w3.org/2000/svg">
<circle cx="65.9999" cy="65.9999" r="52.8764" fill="#1648CE" fill-opacity="0.5" stroke="#1648CE" stroke-width="4"/>
<circle cx="66" cy="66" r="64" stroke="#1648CE" stroke-width="4"/>
<path d="M26 86L86 26L26 86ZM26 74L58 106L26 74ZM38 62L70 94L38 62ZM50 50L82 82L50 50ZM62 38L94 70L62 38ZM74 26L106 58L74 26ZM46 106L106 46L46 106Z" fill="#0C349E"/>
<path d="M26 86L86 26M26 74L58 106M38 62L70 94M50 50L82 82M62 38L94 70M74 26L106 58M46 106L106 46" stroke="#1648CE" stroke-width="3" stroke-linecap="round" stroke-linejoin="round"/>
</svg>
