<svg width="132" height="132" viewBox="0 0 132 132" fill="none" xmlns="http://www.w3.org/2000/svg">
<circle cx="66" cy="66" r="64" stroke="#00A7AC" stroke-width="4"/>
<circle cx="66" cy="65.9999" r="52.8764" fill="#AFD9E2" stroke="#00A7AC" stroke-width="4"/>
<path d="M65.6292 66.3709C68.7488 66.3709 71.7982 65.4466 74.3921 63.7151C76.9859 61.9835 79.0075 59.5224 80.2013 56.6429C81.3951 53.7634 81.7074 50.595 81.0988 47.5381C80.4902 44.4813 78.988 41.6734 76.7822 39.4695C74.5763 37.2657 71.7659 35.7648 68.7063 35.1568C65.6467 34.5488 62.4754 34.8608 59.5933 36.0535C56.7112 37.2463 54.2478 39.2661 52.5147 41.8575C50.7816 44.449 49.8565 47.4957 49.8565 50.6124C49.8565 54.7918 51.5183 58.8 54.4762 61.7553C57.4342 64.7106 61.446 66.3709 65.6292 66.3709ZM65.6292 70.8733C55.853 70.8733 36.3371 76.9065 36.3371 88.8829V97.8877H94.9213V88.8829C94.9213 76.9065 75.4055 70.8733 65.6292 70.8733Z" fill="#00A7AC"/>
</svg>
