<svg width="84" height="15" viewBox="0 0 84 15" fill="none" xmlns="http://www.w3.org/2000/svg">
<path d="M7.51633 11.3985L3.49163 13.5412L4.26045 9.0029L1 5.78919L5.49942 5.12889L7.51176 1L9.52411 5.12889L14.0235 5.78919L10.7631 9.0029L11.5319 13.5412L7.51633 11.3985Z" fill="#1648CE" stroke="#1648CE" stroke-width="2" stroke-linecap="round" stroke-linejoin="round"/>
<path d="M24.8811 11.3985L20.8564 13.5412L21.6252 9.0029L18.3647 5.78919L22.8642 5.12889L24.8765 1L26.8889 5.12889L31.3883 5.78919L28.1278 9.0029L28.8966 13.5412L24.8811 11.3985Z" fill="#1648CE" stroke="#1648CE" stroke-width="2" stroke-linecap="round" stroke-linejoin="round"/>
<path d="M42.0047 11.3985L37.831 13.5412L38.6283 9.0029L35.2471 5.78919L39.9131 5.12889L42 1L44.0869 5.12889L48.753 5.78919L45.3717 9.0029L46.169 13.5412L42.0047 11.3985Z" fill="#1648CE" stroke="#1648CE" stroke-width="2" stroke-linecap="round" stroke-linejoin="round"/>
<path d="M59.1281 11.3985L55.1034 13.5412L55.8723 9.0029L52.6118 5.78919L57.1112 5.12889L59.1236 1L61.1359 5.12889L65.6353 5.78919L62.3749 9.0029L63.1437 13.5412L59.1281 11.3985Z" fill="#1648CE" stroke="#1648CE" stroke-width="2" stroke-linecap="round" stroke-linejoin="round"/>
<path d="M76.2518 11.3985L72.0781 13.5412L72.8753 9.0029L69.4941 5.78919L74.1602 5.12889L76.2471 1L78.334 5.12889L83 5.78919L79.6188 9.0029L80.4161 13.5412L76.2518 11.3985Z" fill="#C4C4C4" stroke="#C4C4C4" stroke-width="2" stroke-linecap="round" stroke-linejoin="round"/>
</svg>
