<svg width="35" height="35" viewBox="0 0 35 35" fill="none" xmlns="http://www.w3.org/2000/svg">
<rect width="35" height="35" rx="8" fill="#F9EDEB"/>
<path d="M24.75 13.3625C24.5221 13.2599 24.2691 13.2265 24.0224 13.2665C23.7758 13.3065 23.5463 13.4181 23.3625 13.5875L21.75 15.0875V14C21.75 13.4033 21.5129 12.831 21.091 12.409C20.669 11.9871 20.0967 11.75 19.5 11.75H12.75C12.1533 11.75 11.581 11.9871 11.159 12.409C10.7371 12.831 10.5 13.4033 10.5 14V20C10.5 20.5967 10.7371 21.169 11.159 21.591C11.581 22.0129 12.1533 22.25 12.75 22.25H19.5C20.0967 22.25 20.669 22.0129 21.091 21.591C21.5129 21.169 21.75 20.5967 21.75 20V18.9125L23.37 20.4125C23.6085 20.6284 23.9183 20.7486 24.24 20.75C24.4185 20.7496 24.5949 20.7112 24.7575 20.6375C24.9787 20.548 25.1682 20.3946 25.3018 20.1969C25.4354 19.9992 25.507 19.7661 25.5075 19.5275V14.4725C25.5064 14.233 25.4337 13.9993 25.2987 13.8015C25.1637 13.6037 24.9726 13.4508 24.75 13.3625Z" fill="#F57E71"/>
</svg>
