<svg width="33" height="32" viewBox="0 0 33 32" fill="none" xmlns="http://www.w3.org/2000/svg">
<path d="M16.4949 8.03451V6.89662C16.4949 6.76787 16.5046 6.64126 16.5226 6.51727H16.4949C16.0766 6.51727 15.7364 6.85764 15.7364 7.27583C15.7362 7.69414 16.0766 8.0345 16.4949 8.0345V8.03451Z" fill="#E09F1F"/>
<path d="M7.39143 10.3102H11.1845V11.0688H7.39143V10.3102Z" fill="#E09F1F"/>
<path d="M17.9976 11.0229C18.2457 10.9589 18.4733 10.8295 18.6593 10.6435L19.1497 10.1533L19.9083 10.9118L20.6669 10.1533L21.1573 10.6437C21.3433 10.8297 21.5708 10.959 21.819 11.023C21.8631 10.3676 22.009 9.72695 22.2545 9.11311L22.5634 8.34061V6.89657C22.5634 5.85076 21.7127 5 20.6669 5H19.1496C18.1038 5 17.2531 5.85076 17.2531 6.89657V8.34077L17.562 9.11296C17.8077 9.72679 17.9536 10.3675 17.9976 11.0229H17.9976Z" fill="#E09F1F"/>
<path d="M23.3223 8.03457C23.7406 8.03457 24.0809 7.6942 24.0809 7.27601C24.0809 6.8577 23.7405 6.51746 23.3223 6.51746H23.2947C23.3125 6.64145 23.3223 6.7679 23.3223 6.8968V8.03457Z" fill="#E09F1F"/>
<path d="M6.25351 12.586H12.3223C12.5314 12.586 12.7016 12.4159 12.7016 12.2067L12.7015 9.17238C12.7015 8.96321 12.5313 8.79303 12.3221 8.79303H6.25335C6.04419 8.79303 5.87401 8.96321 5.87401 9.17238V12.2068C5.87401 12.416 6.04419 12.586 6.25335 12.586L6.25351 12.586ZM6.63285 9.55172H11.943V11.8275H6.63285V9.55172Z" fill="#E09F1F"/>
<path d="M5.11562 25.4826V26.9998H14.2793C14.2404 26.8862 14.219 26.7645 14.219 26.6379C14.219 26.2624 14.4056 25.9139 14.718 25.7057L15.0525 25.4828L5.11562 25.4826Z" fill="#E09F1F"/>
<path d="M24.6781 26.3366L24.1469 25.9824C23.8831 25.8064 23.7036 25.5261 23.6542 25.213L22.7698 19.6121C22.426 19.958 21.9503 20.1724 21.4255 20.1724C21.2501 20.1724 21.0807 20.1477 20.9194 20.103L22.3526 26.4095C22.4317 26.7572 22.7358 27 23.0925 27H24.4774C24.6769 27 24.8393 26.8376 24.8393 26.6381C24.8393 26.5168 24.779 26.4041 24.678 26.3367L24.6781 26.3366Z" fill="#E09F1F"/>
<path d="M17.0469 19.6122L16.1625 25.2131C16.1131 25.5261 15.9335 25.8065 15.6697 25.9824L15.1385 26.3365C15.0375 26.4038 14.9774 26.5164 14.9774 26.6376C14.9774 26.8371 15.1397 26.9996 15.3392 26.9996H16.7242C17.0806 26.9996 17.3849 26.7569 17.464 26.4091L18.8972 20.1027C18.7358 20.1475 18.5664 20.1722 18.391 20.1722C17.8662 20.1722 17.3906 19.9578 17.0468 19.6121L17.0469 19.6122Z" fill="#E09F1F"/>
<path d="M26.7342 16.3279L26.0871 15.8964L24.0412 12.9737C23.6744 12.4496 23.1306 12.0757 22.51 11.9205L22.1331 11.8263C21.5836 11.8139 21.0673 11.6024 20.668 11.2253L19.9086 11.9846L19.1493 11.2253C18.75 11.6024 18.2337 11.8138 17.6842 11.8263L17.3073 11.9205C16.6867 12.0757 16.1428 12.4496 15.7761 12.9737L13.7302 15.8964L13.083 16.3279C12.8444 16.4871 12.7019 16.7533 12.7019 17.0403C12.7017 17.5124 13.0858 17.8964 13.5578 17.8964C13.9961 17.8964 14.3764 17.5995 14.4827 17.1744L14.639 16.5492L18.0121 13.6579V16.021C18.0121 16.314 17.9429 16.6072 17.8118 16.8692L17.3831 17.7269C17.2982 17.8963 17.2534 18.0861 17.2534 18.2756C17.2534 18.9031 17.7639 19.4135 18.3913 19.4135C19.0188 19.4135 19.5292 18.903 19.5292 18.2756V17.8963H20.2877V18.2756C20.2877 18.9031 20.7983 19.4135 21.4256 19.4135C22.0531 19.4135 22.5635 18.903 22.5635 18.2756C22.5635 18.086 22.5187 17.8963 22.434 17.7267L22.0053 16.869C21.8744 16.6072 21.8051 16.314 21.8051 16.021V13.6579L25.1783 16.5491L25.3345 17.1743C25.4409 17.5993 25.8211 17.8963 26.2594 17.8963C26.7313 17.8964 27.1154 17.5123 27.1154 17.0403C27.1154 16.7535 26.9728 16.4871 26.7342 16.3279H26.7342Z" fill="#E09F1F"/>
<path d="M9.6672 13.3447H8.90852V18.1186L9.6672 17.36V13.3447Z" fill="#E09F1F"/>
<path d="M8.90858 24.724H9.66726V18.4329L8.90858 19.1915V24.724Z" fill="#E09F1F"/>
</svg>
