<svg width="243" height="81" viewBox="0 0 243 81" fill="none" xmlns="http://www.w3.org/2000/svg">
<path d="M52.4328 51.608C52.3921 52.096 52.3311 52.6043 52.2498 53.133C52.1684 53.6617 52.0261 54.1497 51.8228 54.597C51.6194 55.085 51.3551 55.451 51.0298 55.695C50.5824 56.1017 50.0538 56.3253 49.4438 56.366C48.8744 56.5693 48.3254 56.6303 47.7968 56.549C47.2681 56.4677 46.7801 56.3253 46.3328 56.122C45.7634 55.756 45.3364 55.329 45.0517 54.841C44.8078 54.3123 44.6248 53.7633 44.5028 53.194C44.3808 52.6247 44.3198 52.035 44.3198 51.425C44.3198 50.815 44.3198 50.2457 44.3198 49.717V44.959L44.2588 35.626C44.2588 34.9753 44.2588 34.467 44.2588 34.101C44.2588 33.735 44.2588 33.4097 44.2588 33.125C44.2588 32.7997 44.2384 32.454 44.1977 32.088C44.1977 31.6813 44.1977 31.112 44.1977 30.38C44.1977 30.258 44.1977 30.0547 44.1977 29.77C44.2384 29.4447 44.2181 28.611 44.1368 27.269C42.5508 29.9123 41.2291 32.0473 40.1718 33.674C39.1551 35.26 38.2808 36.5003 37.5488 37.395C36.8574 38.249 36.2474 38.8387 35.7188 39.164C35.1901 39.4487 34.6411 39.6113 34.0718 39.652C33.7464 39.6927 33.4211 39.6317 33.0958 39.469C32.7704 39.3063 32.4451 39.103 32.1198 38.859C31.8351 38.615 31.5504 38.371 31.2658 38.127C31.0218 37.8423 30.8184 37.578 30.6558 37.334C29.6798 36.114 28.5818 34.65 27.3618 32.942C26.1418 31.234 24.8811 29.16 23.5798 26.72C23.5798 26.7607 23.5594 27.4317 23.5188 28.733C23.5188 30.0343 23.5188 31.661 23.5188 33.613C23.5188 35.5243 23.4984 37.5983 23.4578 39.835C23.4578 42.031 23.4374 44.0847 23.3968 45.996C23.3968 47.9073 23.3764 49.5137 23.3358 50.815C23.2951 52.0757 23.2544 52.706 23.2138 52.706C23.2138 53.3973 23.0511 54.048 22.7258 54.658C22.4004 55.2273 21.9531 55.695 21.3838 56.061C20.8551 56.427 20.2248 56.6303 19.4928 56.671C18.7608 56.7117 17.9678 56.5083 17.1138 56.061C16.5851 55.7357 16.1784 55.268 15.8938 54.658C15.6498 54.048 15.4871 53.4787 15.4058 52.95C15.3651 52.3807 15.3244 51.8317 15.2838 51.303C15.2838 50.7743 15.2838 50.2253 15.2838 49.656L15.3448 44.898L15.4058 35.504V27.33C15.4058 23.792 15.5278 20.315 15.7718 16.899C15.7718 16.4517 15.8124 16.045 15.8938 15.679C16.0158 15.2723 16.1581 14.886 16.3208 14.52C16.6461 13.8693 17.0731 13.3813 17.6018 13.056C18.2118 12.69 18.8624 12.507 19.5538 12.507C19.8384 12.507 20.1028 12.5273 20.3468 12.568C20.6314 12.568 20.8958 12.5883 21.1398 12.629C21.9531 12.7917 22.6444 13.2797 23.2138 14.093C23.8238 14.8657 24.3931 15.5367 24.9218 16.106C25.2471 16.472 25.5928 16.9193 25.9588 17.448C26.3248 17.9767 26.6908 18.5257 27.0568 19.095C27.4228 19.6643 27.7684 20.2133 28.0938 20.742C28.4191 21.2707 28.7038 21.7383 28.9477 22.145C30.0051 23.853 30.9404 25.4187 31.7538 26.842C32.6078 28.2653 33.4008 29.4853 34.1328 30.502C34.2548 30.38 34.3971 30.2173 34.5598 30.014C34.7224 29.77 34.8851 29.526 35.0478 29.282C35.2511 28.9973 35.4138 28.733 35.5358 28.489C35.6984 28.245 35.8204 28.0417 35.9018 27.879C36.3084 27.2283 36.7151 26.598 37.1218 25.988C37.5284 25.3373 37.9554 24.6663 38.4028 23.975C38.8908 23.243 39.3788 22.45 39.8668 21.596C40.3954 20.742 41.0054 19.766 41.6968 18.668C41.9814 18.18 42.3474 17.5903 42.7948 16.899C43.2421 16.2077 43.7504 15.5367 44.3198 14.886C44.8891 14.2353 45.4788 13.6863 46.0888 13.239C46.7394 12.751 47.3901 12.507 48.0408 12.507C48.3661 12.507 48.6508 12.5273 48.8948 12.568C49.1388 12.568 49.3828 12.5883 49.6268 12.629C50.1148 12.6697 50.5824 12.8933 51.0298 13.3C51.3551 13.6253 51.5991 13.971 51.7618 14.337C51.9244 14.8657 52.0261 15.313 52.0668 15.679C52.1074 15.9637 52.1278 16.228 52.1278 16.472C52.1684 16.716 52.1888 16.96 52.1888 17.204C52.1888 19.4813 52.2091 21.7383 52.2498 23.975C52.2904 26.2117 52.3108 28.4687 52.3108 30.746C52.3108 33.5113 52.3108 36.358 52.3108 39.286C52.3514 42.214 52.3718 45.0607 52.3718 47.826C52.3718 48.3953 52.3921 49.0053 52.4328 49.656C52.4734 50.3067 52.4734 50.9573 52.4328 51.608ZM78.506 47.643C78.994 47.521 79.482 47.4397 79.97 47.399C80.4986 47.3583 80.9663 47.4193 81.373 47.582C81.8203 47.7447 82.1863 48.0293 82.471 48.436C82.7556 48.802 82.898 49.3307 82.898 50.022C82.898 50.51 82.776 50.9777 82.532 51.425C82.288 51.8723 81.983 52.279 81.617 52.645C81.251 53.011 80.8443 53.3363 80.397 53.621C79.9496 53.865 79.5226 54.0683 79.116 54.231C77.9366 54.7597 76.5743 55.1663 75.029 55.451C73.5243 55.7357 71.9586 55.8373 70.332 55.756C68.136 55.6747 66.0213 55.2477 63.988 54.475C61.9953 53.6617 60.4296 52.34 59.291 50.51C58.2336 48.7207 57.6033 46.728 57.4 44.532C57.1966 42.336 57.2983 40.262 57.705 38.31C58.1523 35.9513 58.9046 34.04 59.962 32.576C61.06 31.0713 62.3613 29.8717 63.866 28.977C65.696 27.9197 67.7496 27.3707 70.027 27.33C72.3043 27.2893 74.48 27.7367 76.554 28.672C77.9366 29.282 79.177 30.1157 80.275 31.173C81.373 32.1897 82.2066 33.43 82.776 34.894C82.9386 35.26 83.0606 35.7073 83.142 36.236C83.264 36.7647 83.3453 37.334 83.386 37.944C83.4266 38.5133 83.4266 39.0827 83.386 39.652C83.3453 40.2213 83.2436 40.7297 83.081 41.177C82.837 41.909 82.532 42.4783 82.166 42.885C81.8 43.2917 81.3323 43.5967 80.763 43.8C80.1936 44.0033 79.5023 44.1457 78.689 44.227C77.9163 44.2677 76.981 44.3083 75.883 44.349C74.907 44.3897 73.992 44.41 73.138 44.41C72.284 44.41 71.4096 44.41 70.515 44.41C69.6203 44.3693 68.685 44.349 67.709 44.349C66.7736 44.3083 65.7163 44.2677 64.537 44.227C64.415 45.0403 64.5166 45.752 64.842 46.362C65.208 46.9313 65.696 47.4193 66.306 47.826C66.916 48.192 67.6073 48.4767 68.38 48.68C69.1526 48.8833 69.905 49.0053 70.637 49.046C72.0196 49.1273 73.3413 49.0257 74.602 48.741C75.8626 48.4157 77.164 48.0497 78.506 47.643ZM75.883 35.809C75.1103 34.9143 74.297 34.2637 73.443 33.857C72.7923 33.5723 72.101 33.4503 71.369 33.491C70.6776 33.491 70.0066 33.5927 69.356 33.796C68.1766 34.0807 67.1803 34.6907 66.367 35.626C66.2856 35.7073 66.1433 35.9107 65.94 36.236C65.7366 36.5207 65.5333 36.8257 65.33 37.151C65.1673 37.4763 65.0453 37.7813 64.964 38.066C64.8826 38.3507 64.9233 38.493 65.086 38.493H77.042C77.0013 37.9237 76.8996 37.456 76.737 37.09C76.5743 36.6833 76.2896 36.2563 75.883 35.809ZM107.349 13.361C108.122 13.1577 108.793 13.1373 109.362 13.3C109.972 13.422 110.48 13.6863 110.887 14.093C111.334 14.4997 111.66 15.008 111.863 15.618C112.107 16.228 112.229 16.899 112.229 17.631C112.27 19.6643 112.27 21.2503 112.229 22.389C112.229 23.5277 112.229 24.524 112.229 25.378V44.105C112.229 46.301 112.229 48.131 112.229 49.595C112.229 51.059 112.148 52.2587 111.985 53.194C111.863 54.0887 111.619 54.7597 111.253 55.207C110.928 55.6543 110.419 55.9593 109.728 56.122C109.037 56.3253 108.122 56.427 106.983 56.427C105.885 56.427 104.502 56.427 102.835 56.427C98.443 56.427 94.966 55.39 92.404 53.316C89.8826 51.242 88.5406 47.948 88.378 43.434C88.2966 41.482 88.5406 39.6927 89.11 38.066C89.6793 36.4393 90.513 35.0567 91.611 33.918C92.7496 32.7387 94.1323 31.844 95.759 31.234C97.4263 30.5833 99.3173 30.2783 101.432 30.319H104.787V19.4C104.787 18.7493 104.787 18.119 104.787 17.509C104.787 16.8583 104.848 16.2687 104.97 15.74C105.092 15.1707 105.336 14.6827 105.702 14.276C106.068 13.8693 106.617 13.5643 107.349 13.361ZM96.735 47.216C97.589 48.3953 99.1343 49.046 101.371 49.168C101.818 49.2087 102.245 49.229 102.652 49.229C103.059 49.1883 103.425 49.1273 103.75 49.046C104.116 49.0053 104.462 48.9443 104.787 48.863V37.578C103.364 37.334 102.062 37.1917 100.883 37.151C99.7443 37.0697 98.6056 37.4763 97.467 38.371C96.857 38.859 96.3893 39.4893 96.064 40.262C95.7386 40.994 95.5556 41.787 95.515 42.641C95.4743 43.4543 95.5556 44.2677 95.759 45.081C95.9623 45.8943 96.2876 46.606 96.735 47.216Z" fill="#00A7AC"/>
<path d="M153.2 15.74C153.403 16.6753 153.424 17.631 153.261 18.607C153.139 19.5423 152.956 20.3963 152.712 21.169C152.224 22.755 151.655 24.524 151.004 26.476C150.353 28.428 149.703 30.38 149.052 32.332C148.401 34.284 147.771 36.1343 147.161 37.883C146.551 39.591 146.043 41.0143 145.636 42.153C145.229 43.2103 144.802 44.41 144.355 45.752C143.908 47.094 143.359 48.4157 142.708 49.717C142.098 50.9777 141.366 52.1367 140.512 53.194C139.699 54.2513 138.702 55.024 137.523 55.512C136.344 56 135.266 56.122 134.29 55.878C133.314 55.5933 132.44 55.1053 131.667 54.414C130.894 53.682 130.183 52.7873 129.532 51.73C128.922 50.632 128.373 49.5137 127.885 48.375C127.397 47.2363 126.95 46.1383 126.543 45.081C126.136 43.983 125.77 43.0477 125.445 42.275C124.184 39.5097 123.046 36.5817 122.029 33.491C121.012 30.4003 119.975 27.452 118.918 24.646C118.633 23.8327 118.308 22.8567 117.942 21.718C117.576 20.5387 117.332 19.3797 117.21 18.241C117.129 17.0617 117.271 16.0043 117.637 15.069C118.003 14.093 118.776 13.422 119.955 13.056C120.199 12.9747 120.443 12.9137 120.687 12.873C120.972 12.7917 121.236 12.7307 121.48 12.69C121.765 12.69 122.029 12.7103 122.273 12.751C122.517 12.7917 122.781 12.8933 123.066 13.056C123.269 13.1373 123.473 13.239 123.676 13.361C123.879 13.4423 124.062 13.5643 124.225 13.727C124.388 13.9303 124.53 14.1337 124.652 14.337C124.815 14.5403 124.977 14.7437 125.14 14.947C125.262 15.2317 125.364 15.496 125.445 15.74C125.567 15.9433 125.669 16.1467 125.75 16.35C125.831 16.6347 125.933 16.899 126.055 17.143C126.177 17.3463 126.279 17.5497 126.36 17.753L126.726 18.79L135.51 43.861L144.172 18.851L144.599 17.814C144.68 17.6107 144.762 17.4073 144.843 17.204C144.924 16.96 145.006 16.6957 145.087 16.411C145.168 16.2077 145.25 16.0043 145.331 15.801C145.453 15.557 145.595 15.313 145.758 15.069C145.88 14.8657 146.002 14.6623 146.124 14.459C146.287 14.215 146.449 13.9913 146.612 13.788C146.734 13.6253 146.876 13.483 147.039 13.361C147.242 13.239 147.425 13.1373 147.588 13.056C147.913 12.8933 148.198 12.7917 148.442 12.751C148.727 12.7103 148.971 12.69 149.174 12.69C149.418 12.7307 149.662 12.7917 149.906 12.873C150.191 12.9137 150.455 12.9747 150.699 13.056C151.472 13.2593 152.041 13.605 152.407 14.093C152.814 14.581 153.078 15.13 153.2 15.74ZM165.939 32.881C165.939 34.0197 165.939 35.3007 165.939 36.724C165.979 38.1473 166 39.6317 166 41.177C166 42.6817 166 44.1863 166 45.691C166 47.155 165.979 48.5173 165.939 49.778C165.898 50.388 165.837 51.059 165.756 51.791C165.674 52.4823 165.512 53.133 165.268 53.743C165.024 54.353 164.637 54.8613 164.109 55.268C163.621 55.634 162.95 55.7967 162.096 55.756C160.835 55.6747 159.92 55.1257 159.351 54.109C158.822 53.0923 158.517 51.669 158.436 49.839C158.436 48.9037 158.415 47.826 158.375 46.606C158.375 45.386 158.354 44.1457 158.314 42.885C158.314 41.6243 158.314 40.4043 158.314 39.225C158.314 38.005 158.314 36.907 158.314 35.931C158.314 35.3617 158.293 34.6703 158.253 33.857C158.253 33.0437 158.273 32.21 158.314 31.356C158.354 30.502 158.456 29.6887 158.619 28.916C158.781 28.1027 159.046 27.4317 159.412 26.903C159.696 26.5777 160.103 26.3337 160.632 26.171C161.16 25.9677 161.709 25.866 162.279 25.866C162.889 25.866 163.458 25.9677 163.987 26.171C164.556 26.3743 164.963 26.659 165.207 27.025C165.369 27.269 165.491 27.6147 165.573 28.062C165.654 28.5093 165.715 29.0177 165.756 29.587C165.837 30.1157 165.878 30.685 165.878 31.295C165.918 31.8643 165.939 32.393 165.939 32.881ZM163.621 20.559C162.36 20.8843 161.303 20.7623 160.449 20.193C159.635 19.583 159.127 18.6883 158.924 17.509C158.761 16.655 158.822 15.9027 159.107 15.252C159.391 14.6013 159.818 14.1133 160.388 13.788C160.957 13.422 161.608 13.2593 162.34 13.3C163.072 13.3407 163.804 13.6253 164.536 14.154C165.227 14.642 165.715 15.2113 166 15.862C166.325 16.5127 166.427 17.143 166.305 17.753C166.223 18.363 165.959 18.9323 165.512 19.461C165.064 19.949 164.434 20.315 163.621 20.559ZM198.443 29.282C198.606 29.77 198.647 30.319 198.565 30.929C198.484 31.539 198.342 32.1693 198.138 32.82C197.935 33.43 197.691 34.04 197.406 34.65C197.162 35.2193 196.939 35.7277 196.735 36.175C195.678 38.3303 194.682 40.445 193.746 42.519C192.811 44.593 191.713 46.85 190.452 49.29C190.208 49.778 189.924 50.3677 189.598 51.059C189.314 51.7097 188.988 52.3603 188.622 53.011C188.256 53.621 187.85 54.1903 187.402 54.719C186.996 55.2477 186.548 55.634 186.06 55.878C185.654 56.122 185.247 56.2237 184.84 56.183C184.515 56.2643 184.149 56.1627 183.742 55.878C183.254 55.634 182.787 55.2477 182.339 54.719C181.933 54.1903 181.546 53.621 181.18 53.011C180.814 52.3603 180.469 51.7097 180.143 51.059C179.859 50.3677 179.594 49.778 179.35 49.29C178.862 48.3547 178.395 47.4803 177.947 46.667C177.541 45.8537 177.093 44.9793 176.605 44.044C176.158 43.068 175.65 41.97 175.08 40.75C174.511 39.4893 173.84 37.9643 173.067 36.175C172.864 35.687 172.64 35.1787 172.396 34.65C172.152 34.1213 171.929 33.552 171.725 32.942C171.563 32.332 171.441 31.722 171.359 31.112C171.319 30.4613 171.359 29.8107 171.481 29.16C171.603 28.55 171.908 28.062 172.396 27.696C172.884 27.33 173.433 27.086 174.043 26.964C174.653 26.842 175.263 26.8623 175.873 27.025C176.483 27.147 176.971 27.4113 177.337 27.818C177.703 28.184 178.049 28.672 178.374 29.282C178.7 29.892 179.005 30.5427 179.289 31.234C179.615 31.8847 179.899 32.5557 180.143 33.247C180.428 33.8977 180.692 34.467 180.936 34.955C181.506 36.1343 182.136 37.4153 182.827 38.798C183.559 40.1807 184.21 41.4617 184.779 42.641C185.186 41.7057 185.552 40.933 185.877 40.323C186.203 39.6723 186.508 39.042 186.792 38.432C187.118 37.822 187.443 37.151 187.768 36.419C188.134 35.687 188.582 34.7517 189.11 33.613C189.598 32.5557 190.086 31.5187 190.574 30.502C191.103 29.4853 191.733 28.5907 192.465 27.818C192.831 27.4113 193.299 27.147 193.868 27.025C194.438 26.8623 195.027 26.842 195.637 26.964C196.247 27.086 196.796 27.3503 197.284 27.757C197.813 28.123 198.199 28.6313 198.443 29.282ZM222.785 47.643C223.273 47.521 223.761 47.4397 224.249 47.399C224.778 47.3583 225.246 47.4193 225.652 47.582C226.1 47.7447 226.466 48.0293 226.75 48.436C227.035 48.802 227.177 49.3307 227.177 50.022C227.177 50.51 227.055 50.9777 226.811 51.425C226.567 51.8723 226.262 52.279 225.896 52.645C225.53 53.011 225.124 53.3363 224.676 53.621C224.229 53.865 223.802 54.0683 223.395 54.231C222.216 54.7597 220.854 55.1663 219.308 55.451C217.804 55.7357 216.238 55.8373 214.611 55.756C212.415 55.6747 210.301 55.2477 208.267 54.475C206.275 53.6617 204.709 52.34 203.57 50.51C202.513 48.7207 201.883 46.728 201.679 44.532C201.476 42.336 201.578 40.262 201.984 38.31C202.432 35.9513 203.184 34.04 204.241 32.576C205.339 31.0713 206.641 29.8717 208.145 28.977C209.975 27.9197 212.029 27.3707 214.306 27.33C216.584 27.2893 218.759 27.7367 220.833 28.672C222.216 29.282 223.456 30.1157 224.554 31.173C225.652 32.1897 226.486 33.43 227.055 34.894C227.218 35.26 227.34 35.7073 227.421 36.236C227.543 36.7647 227.625 37.334 227.665 37.944C227.706 38.5133 227.706 39.0827 227.665 39.652C227.625 40.2213 227.523 40.7297 227.36 41.177C227.116 41.909 226.811 42.4783 226.445 42.885C226.079 43.2917 225.612 43.5967 225.042 43.8C224.473 44.0033 223.782 44.1457 222.968 44.227C222.196 44.2677 221.26 44.3083 220.162 44.349C219.186 44.3897 218.271 44.41 217.417 44.41C216.563 44.41 215.689 44.41 214.794 44.41C213.9 44.3693 212.964 44.349 211.988 44.349C211.053 44.3083 209.996 44.2677 208.816 44.227C208.694 45.0403 208.796 45.752 209.121 46.362C209.487 46.9313 209.975 47.4193 210.585 47.826C211.195 48.192 211.887 48.4767 212.659 48.68C213.432 48.8833 214.184 49.0053 214.916 49.046C216.299 49.1273 217.621 49.0257 218.881 48.741C220.142 48.4157 221.443 48.0497 222.785 47.643ZM220.162 35.809C219.39 34.9143 218.576 34.2637 217.722 33.857C217.072 33.5723 216.38 33.4503 215.648 33.491C214.957 33.491 214.286 33.5927 213.635 33.796C212.456 34.0807 211.46 34.6907 210.646 35.626C210.565 35.7073 210.423 35.9107 210.219 36.236C210.016 36.5207 209.813 36.8257 209.609 37.151C209.447 37.4763 209.325 37.7813 209.243 38.066C209.162 38.3507 209.203 38.493 209.365 38.493H221.321C221.281 37.9237 221.179 37.456 221.016 37.09C220.854 36.6833 220.569 36.2563 220.162 35.809Z" fill="url(#paint0_linear_637_264)"/>
<defs>
<linearGradient id="paint0_linear_637_264" x1="121.5" y1="0" x2="121.5" y2="81" gradientUnits="userSpaceOnUse">
<stop stop-color="#1648CE"/>
<stop offset="0.0001" stop-color="#154ECC"/>
<stop offset="0.833347" stop-color="#00A7AC"/>
</linearGradient>
</defs>
</svg>
