<svg width="95" height="95" viewBox="0 0 95 95" fill="none" xmlns="http://www.w3.org/2000/svg">
<path d="M58.137 49.7287C57.4481 49.7156 56.775 49.5204 56.1861 49.1629L46.8217 43.5833L37.5159 49.1629C37.0766 49.4268 36.5895 49.6016 36.0826 49.6772C35.5757 49.7529 35.0588 49.7279 34.5615 49.6038C34.0643 49.4797 33.5963 49.2589 33.1844 48.954C32.7724 48.649 32.4246 48.2659 32.1607 47.8265C31.8968 47.3872 31.7221 46.9001 31.6464 46.3932C31.5708 45.8863 31.5957 45.3694 31.7198 44.8722C31.8439 44.3749 32.0647 43.9069 32.3696 43.495C32.6746 43.083 33.0577 42.7352 33.4971 42.4713L46.8217 34.4726L60.1464 42.4713C60.883 42.9084 61.4554 43.5757 61.7751 44.3703C62.0949 45.1649 62.1443 46.0426 61.9157 46.8681C61.6872 47.6935 61.1934 48.4209 60.5105 48.9378C59.8275 49.4548 58.9935 49.7327 58.137 49.7287Z" fill="url(#paint0_linear_1_146)"/>
<path d="M10.1448 93.6436C9.47852 93.628 8.81939 93.5028 8.19386 93.2729C5.85278 92.4731 2.69232 90.0539 1.3657 83.2258V82.9722C-0.047157 72.1453 -0.347863 61.2022 0.468287 50.314C1.56079 36.4431 3.90188 30.6684 5.57965 27.5275C9.68819 20.0978 15.8432 14.0038 23.3134 9.96937L24.0352 9.55968H24.8741C27.4475 9.33778 30.0039 10.1456 31.9825 11.8061C33.9611 13.4665 35.2004 15.8439 35.4285 18.4168L38.823 56.9471C39.7556 63.6177 38.2825 70.4023 34.6676 76.0855C33.0289 78.5436 30.3756 80.6896 25.1082 84.9621C16.8754 91.6927 12.9736 93.6436 10.1448 93.6436ZM9.03275 81.9382C9.20071 83.3311 9.6881 84.6664 10.4569 85.84C13.9733 83.9913 17.2493 81.7177 20.2114 79.0704C23.1267 76.9923 25.8028 74.5976 28.1906 71.93C30.7844 67.7371 31.801 62.7577 31.0585 57.8835L27.6639 18.924C27.6477 18.6622 27.5789 18.4063 27.4616 18.1716C27.3443 17.937 27.1809 17.7284 26.9811 17.5584C26.7537 17.3711 26.4869 17.2377 26.2007 17.1682C20.4404 20.4667 15.7118 25.3033 12.5444 31.1367C11.7055 32.6389 9.3449 37.0674 8.25239 50.9188C7.45393 61.2582 7.71541 71.6521 9.03275 81.9382Z" fill="url(#paint1_linear_1_146)"/>
<path d="M83.4988 93.6434C80.6895 93.6434 76.7876 91.6925 68.5353 84.9424C63.2679 80.6699 60.6147 78.5239 58.9759 76.0658C55.3605 70.3614 53.8943 63.556 54.84 56.8689L58.1955 18.241C58.4236 15.6681 59.6629 13.2907 61.6415 11.6303C63.6201 9.96989 66.1765 9.16203 68.7499 9.38393H69.5888L70.2326 9.87165C77.7028 13.9061 83.8578 20.0001 87.9663 27.4298C89.6441 30.5707 91.9852 36.3649 93.0777 50.2163C93.9146 61.1089 93.6335 72.0586 92.2388 82.894V83.1476C90.9122 89.9757 87.8298 92.3948 85.4887 93.2142C84.8543 93.4683 84.1815 93.6134 83.4988 93.6434ZM67.4428 17.207C67.1566 17.2765 66.8898 17.4099 66.6625 17.5972C66.2681 17.9315 66.0225 18.4086 65.9796 18.9238L62.5851 57.6298C61.8303 62.5292 62.8471 67.5372 65.4529 71.7543C67.8407 74.4218 70.5168 76.8165 73.4321 78.8946C76.3942 81.542 79.6702 83.8156 83.1866 85.6642C83.9554 84.4906 84.4428 83.1553 84.6108 81.7624C85.9228 71.5021 86.1843 61.1346 85.3911 50.8211C84.2986 37.0672 81.938 32.6387 81.1772 31.2145C77.9952 25.3557 73.2378 20.5038 67.4428 17.207Z" fill="url(#paint2_linear_1_146)"/>
<g filter="url(#filter0_b_1_146)">
<path d="M45.6 41.8C44.5922 41.8 43.6257 41.3996 42.913 40.687C42.2004 39.9744 41.8 39.0078 41.8 38V3.8C41.8 2.79218 42.2004 1.82563 42.913 1.11299C43.6257 0.400356 44.5922 0 45.6 0C46.6079 0 47.5744 0.400356 48.2871 1.11299C48.9997 1.82563 49.4 2.79218 49.4 3.8V38C49.4 39.0078 48.9997 39.9744 48.2871 40.687C47.5744 41.3996 46.6079 41.8 45.6 41.8Z" fill="#E8E4E4" fill-opacity="0.2"/>
</g>
<defs>
<filter id="filter0_b_1_146" x="16.8" y="-25" width="57.6001" height="91.8" filterUnits="userSpaceOnUse" color-interpolation-filters="sRGB">
<feFlood flood-opacity="0" result="BackgroundImageFix"/>
<feGaussianBlur in="BackgroundImageFix" stdDeviation="12.5"/>
<feComposite in2="SourceAlpha" operator="in" result="effect1_backgroundBlur_1_146"/>
<feBlend mode="normal" in="SourceGraphic" in2="effect1_backgroundBlur_1_146" result="shape"/>
</filter>
<linearGradient id="paint0_linear_1_146" x1="0.0207515" y1="48.6859" x2="91.3058" y2="49.1378" gradientUnits="userSpaceOnUse">
<stop stop-color="#1648CE"/>
<stop offset="1" stop-color="#7298FF"/>
</linearGradient>
<linearGradient id="paint1_linear_1_146" x1="0.0207515" y1="48.6859" x2="91.3058" y2="49.1378" gradientUnits="userSpaceOnUse">
<stop stop-color="#1648CE"/>
<stop offset="1" stop-color="#7298FF"/>
</linearGradient>
<linearGradient id="paint2_linear_1_146" x1="0.0207515" y1="48.6859" x2="91.3058" y2="49.1378" gradientUnits="userSpaceOnUse">
<stop stop-color="#1648CE"/>
<stop offset="1" stop-color="#7298FF"/>
</linearGradient>
</defs>
</svg>
